<?xml version="1.0" standalone="no"?>
<!DOCTYPE svg PUBLIC "-//W3C//DTD SVG 20010904//EN"
 "http://www.w3.org/TR/2001/REC-SVG-20010904/DTD/svg10.dtd">
<svg version="1.0" xmlns="http://www.w3.org/2000/svg"
 width="1400.000000pt" height="1400.000000pt" viewBox="0 0 1400.000000 1400.000000"
 preserveAspectRatio="xMidYMid meet">
<metadata>
Created by potrace 1.11, written by Peter Selinger 2001-2013
</metadata>
<g transform="translate(0.000000,1400.000000) scale(0.100000,-0.100000)"
fill="#000000" stroke="none">
<path d="M6687 13363 c-14 -13 -7 -40 11 -40 18 0 32 14 32 35 0 13 -32 17
-43 5z"/>
<path d="M13097 13141 c-3 -14 2 -18 24 -19 26 -1 28 2 19 19 -13 24 -36 25
-43 0z"/>
<path d="M11026 13092 c-3 -5 -10 -20 -15 -34 l-9 -25 254 2 c139 0 256 4 259
7 3 3 -31 16 -77 29 -67 19 -113 24 -244 27 -95 2 -164 0 -168 -6z"/>
<path d="M12140 13088 c-53 -22 -208 -49 -278 -48 -45 1 -72 -3 -68 -9 5 -7
96 -39 199 -67 17 -5 103 50 172 110 31 27 20 33 -25 14z"/>
<path d="M13320 12980 c-20 -12 -13 -16 43 -23 56 -8 60 -1 12 19 -40 16 -36
16 -55 4z"/>
<path d="M13025 12929 c-22 -4 -61 -8 -86 -8 -25 -1 -59 -5 -75 -10 -16 -5
-41 -12 -56 -15 -15 -3 -62 -34 -105 -68 -43 -34 -109 -84 -148 -111 -64 -45
-67 -48 -35 -42 34 7 54 16 155 68 28 14 91 33 143 42 109 19 133 28 190 73
37 30 69 70 60 76 -2 1 -21 -1 -43 -5z"/>
<path d="M10500 12920 c-8 -6 -31 -8 -50 -5 -19 3 -48 2 -65 -3 -16 -5 -56 -6
-87 -2 -53 5 -73 1 -240 -56 -101 -33 -194 -66 -208 -72 -14 -6 -46 -16 -71
-22 -53 -14 -117 -62 -174 -133 -22 -26 -67 -67 -100 -89 -33 -22 -88 -69
-123 -104 -94 -95 -182 -134 -547 -239 -84 -24 -238 -37 -301 -26 -79 15 -194
50 -194 60 0 5 -39 11 -87 15 -279 20 -261 20 -378 -9 -61 -15 -126 -36 -145
-46 -37 -19 -189 -89 -195 -89 -2 0 -57 -25 -122 -56 -198 -94 -198 -94 -282
-94 -90 0 -274 24 -346 45 -30 9 -109 16 -200 18 -122 3 -160 7 -205 25 -30
11 -90 26 -132 33 -76 11 -80 11 -177 -21 -139 -45 -154 -38 -63 29 134 101
84 94 -143 -18 -88 -44 -176 -85 -197 -91 -24 -7 -73 -46 -150 -120 -184 -178
-422 -342 -643 -445 -205 -95 -292 -102 -402 -29 -47 30 -49 38 -29 106 25 81
40 95 189 169 77 38 164 87 194 108 96 68 249 217 274 268 13 26 30 49 37 51
27 8 9 -36 -52 -127 -86 -130 -84 -126 -49 -108 16 9 59 46 96 83 76 75 112
141 173 314 20 58 50 124 65 147 16 23 29 47 29 53 0 16 97 108 155 146 28 19
74 41 102 49 37 11 51 20 47 30 -4 10 7 15 41 20 69 11 47 17 -52 16 -103 -1
-164 -17 -224 -59 -59 -42 -175 -154 -229 -222 -24 -30 -76 -92 -115 -137 -38
-45 -85 -102 -102 -127 -49 -68 -243 -178 -423 -239 -66 -23 -208 -58 -295
-74 -43 -7 -152 -50 -183 -71 -15 -10 -52 -31 -82 -47 -146 -76 -224 -149
-277 -257 -29 -61 -75 -205 -88 -278 -16 -89 -49 -207 -64 -224 -32 -37 -138
-103 -201 -126 -36 -13 -91 -36 -122 -52 -35 -17 -74 -28 -98 -28 -54 0 -182
54 -224 94 -50 48 -106 152 -129 242 -19 73 -20 91 -10 170 l11 89 56 50 c31
28 56 55 56 61 0 25 182 158 233 170 35 8 37 -17 4 -50 -12 -12 -29 -31 -37
-41 -14 -17 -13 -18 15 -11 30 7 57 18 145 58 25 11 68 37 95 57 28 21 66 47
85 57 43 24 59 43 60 71 0 28 25 104 55 168 30 64 51 113 64 148 6 15 15 27
21 27 6 0 15 10 20 23 18 41 45 74 85 108 47 40 38 35 255 162 95 56 175 127
144 127 -30 0 -181 -51 -266 -90 l-27 -13 22 -17 c19 -16 20 -20 7 -35 -7 -9
-39 -29 -70 -45 -62 -31 -243 -198 -312 -287 -22 -29 -57 -63 -77 -75 -20 -12
-55 -38 -78 -57 -68 -58 -98 -80 -159 -111 -31 -17 -72 -44 -91 -60 -19 -17
-64 -50 -101 -74 -37 -23 -114 -73 -172 -111 -99 -64 -220 -173 -220 -199 0
-6 -18 -34 -41 -61 -51 -62 -62 -83 -104 -202 -32 -91 -46 -112 -71 -113 -15
0 -30 -37 -53 -128 -18 -71 -22 -111 -36 -332 -10 -160 -49 -270 -123 -347
-57 -60 -80 -103 -101 -188 -18 -72 -65 -163 -111 -213 -45 -49 -49 -62 -20
-62 28 0 26 -43 -3 -71 -32 -31 -165 -119 -180 -119 -20 -1 -245 -168 -315
-235 -75 -71 -70 -30 12 107 35 59 73 130 85 159 13 28 49 90 80 138 93 139
115 181 102 194 -19 19 -13 37 42 126 128 205 200 344 212 406 7 35 8 37 -72
-89 -28 -44 -79 -115 -112 -156 -32 -41 -91 -115 -130 -164 -70 -87 -81 -109
-61 -121 16 -10 11 -68 -9 -108 -42 -82 -139 -191 -314 -350 -103 -94 -170
-174 -207 -247 -13 -25 -45 -78 -72 -119 -28 -40 -67 -106 -89 -146 -35 -67
-39 -81 -42 -164 -2 -50 0 -91 4 -91 4 0 16 11 27 25 11 14 25 25 30 25 18 0
26 -71 13 -115 -6 -22 -16 -71 -21 -110 -12 -98 -25 -150 -59 -241 -29 -78
-39 -99 -114 -227 -21 -36 -49 -93 -62 -127 -13 -34 -45 -100 -69 -145 -36
-67 -47 -98 -55 -162 -5 -43 -16 -103 -24 -133 -18 -66 -41 -181 -56 -271 -8
-47 -8 -82 0 -120 6 -30 10 -93 9 -141 0 -54 3 -88 10 -88 5 0 10 -16 10 -35
0 -36 13 -47 24 -20 9 23 33 18 54 -12 26 -39 32 -69 17 -90 -12 -15 -10 -25
15 -68 15 -27 36 -75 45 -105 24 -78 43 -244 36 -315 -4 -38 -1 -79 8 -112 13
-46 12 -55 -3 -77 -19 -29 -20 -54 -6 -156 5 -41 14 -125 19 -187 5 -61 12
-116 15 -122 4 -6 23 1 47 19 32 23 48 28 72 23 78 -14 89 -77 33 -189 -19
-38 -44 -100 -56 -139 -12 -38 -37 -100 -55 -138 -19 -38 -37 -90 -40 -115 -4
-26 -13 -64 -22 -84 -12 -28 -14 -54 -9 -104 8 -80 20 -110 81 -206 91 -140
117 -176 171 -232 30 -31 54 -65 54 -76 0 -12 11 -31 24 -43 19 -18 25 -39 36
-122 6 -55 21 -122 32 -150 18 -44 21 -78 24 -275 3 -124 0 -241 -5 -260 -5
-19 -19 -69 -30 -110 -24 -87 -26 -142 -8 -196 8 -22 17 -95 21 -164 6 -115
12 -153 46 -324 13 -64 94 -314 115 -356 7 -14 21 -59 31 -100 9 -41 35 -111
56 -154 21 -44 38 -88 38 -97 0 -10 14 -78 31 -151 34 -146 34 -138 31 -633
-2 -263 2 -327 25 -361 7 -12 20 -48 29 -80 8 -32 34 -87 56 -122 23 -35 49
-78 58 -95 9 -17 35 -42 56 -54 157 -91 265 -126 373 -121 l72 3 -5 -80 c-3
-44 -8 -119 -12 -167 l-7 -88 210 0 211 0 6 27 c4 16 9 120 12 233 5 157 2
239 -11 350 -18 163 -23 190 -36 190 -5 0 -12 -12 -15 -27 -4 -16 -11 -33 -15
-39 -12 -14 -9 -136 2 -150 12 -15 1 -42 -21 -54 -37 -20 -85 54 -58 88 8 9 8
20 1 35 -22 48 -30 86 -32 150 -3 88 -17 176 -32 193 -7 8 -12 45 -11 84 0 48
-4 73 -14 81 -10 8 -11 16 -4 23 15 19 -17 225 -41 258 -10 15 -19 36 -19 46
0 10 -9 45 -19 77 -11 32 -17 63 -15 70 3 7 -2 20 -11 29 -9 9 -14 23 -11 31
3 8 1 17 -4 20 -16 10 -23 -61 -23 -235 0 -107 -3 -163 -8 -145 -4 17 -12 47
-17 68 -6 21 -13 41 -16 44 -6 6 -11 -311 -7 -369 2 -21 -1 -26 -12 -22 -21 7
-23 -10 -22 -153 0 -68 -3 -123 -7 -123 -5 0 -8 8 -8 18 0 24 -51 142 -62 142
-4 0 -8 -38 -8 -84 0 -57 -4 -86 -12 -88 -9 -3 -9 -11 -1 -34 6 -16 14 -48 16
-71 l5 -42 -32 5 c-59 10 -151 57 -189 96 -21 21 -50 64 -64 95 -25 53 -26 62
-19 170 3 63 10 133 16 157 5 23 12 75 15 116 4 40 11 85 16 99 13 33 14 120
1 133 -7 7 -28 -28 -63 -101 -30 -60 -57 -110 -61 -111 -5 0 -8 28 -8 63 0 94
-29 411 -46 504 -8 45 -21 154 -29 241 -16 187 -56 363 -131 576 -14 37 -36
125 -51 195 -25 117 -27 147 -30 422 -2 184 1 335 8 399 10 81 10 120 0 179
-15 88 -44 199 -61 231 -6 12 -15 57 -19 101 -8 69 -6 87 14 141 45 124 138
191 265 192 131 1 262 -87 316 -213 14 -31 37 -78 51 -106 33 -62 34 -121 2
-248 l-22 -90 -31 35 c-17 20 -38 47 -47 60 -22 30 -32 18 -32 -37 0 -43 -1
-44 -19 -28 -10 9 -28 35 -41 58 -28 49 -167 225 -179 225 -5 0 -35 19 -69 41
-33 23 -63 38 -66 35 -4 -4 1 -20 11 -37 15 -25 16 -33 6 -39 -11 -7 -10 -13
3 -33 15 -23 15 -26 -13 -52 -38 -36 -45 -75 -30 -172 11 -77 14 -201 8 -419
-2 -93 0 -115 14 -130 9 -11 18 -30 20 -44 3 -25 5 -25 80 -22 115 5 131 11
140 57 8 38 24 65 38 65 4 0 15 -16 24 -35 9 -19 21 -37 26 -40 23 -14 37 62
40 210 2 150 14 274 20 210 2 -16 4 -111 5 -210 l1 -180 43 -90 c44 -91 85
-236 75 -267 -3 -9 -32 -27 -65 -40 -65 -25 -119 -67 -119 -94 0 -10 5 -14 14
-11 8 3 16 -2 19 -13 3 -13 11 -16 33 -12 l28 5 -36 -42 c-32 -37 -56 -97 -44
-109 3 -2 19 1 37 7 18 6 34 10 36 8 1 -2 -1 -24 -5 -49 -10 -49 -5 -108 9
-108 4 0 15 10 25 23 14 19 16 19 9 2 -33 -92 -49 -206 -30 -214 6 -2 15 6 21
18 22 43 24 33 18 -82 -6 -99 -4 -123 11 -164 14 -36 19 -77 19 -158 1 -94 -2
-118 -22 -163 -13 -30 -21 -56 -19 -59 10 -9 46 18 81 60 49 60 68 136 72 287
4 147 14 267 25 295 7 19 8 19 8 -2 1 -36 14 -27 49 35 40 72 68 107 75 96 3
-5 11 -38 17 -74 19 -97 20 -99 37 -60 22 50 21 188 -1 280 -26 107 -37 184
-40 275 -1 44 -8 132 -15 195 -15 131 -15 178 1 197 6 8 9 14 7 16 -2 1 -13 7
-24 13 -24 14 -24 34 0 129 17 69 26 96 44 125 73 117 151 250 151 259 0 18
-9 14 -76 -35 -35 -25 -64 -43 -64 -39 0 3 11 28 25 57 23 47 34 128 19 128
-4 0 -22 -17 -40 -37 -39 -45 -45 -32 -9 21 14 20 25 43 25 50 0 7 18 38 40
69 45 62 51 84 20 67 -35 -19 -22 6 42 76 33 37 56 70 50 72 -6 2 -29 -6 -51
-17 -46 -24 -47 -17 -5 51 24 38 39 51 63 55 8 1 38 25 67 54 l53 53 -5 -40
-5 -39 48 51 c26 28 84 91 128 140 44 48 103 111 131 139 49 50 164 252 164
289 0 23 -27 20 -42 -4 -7 -11 -18 -20 -24 -20 -17 0 -2 66 29 125 34 66 67
144 67 161 0 7 16 49 35 93 44 99 44 114 1 72 -61 -59 -62 -32 -2 82 31 59 56
114 56 121 0 7 21 35 47 62 45 46 46 49 25 52 -31 5 -90 -20 -149 -61 -27 -18
-61 -41 -76 -50 l-28 -18 18 28 c24 39 81 120 120 170 21 29 30 49 26 64 -4
12 0 25 8 30 9 6 10 9 2 9 -7 0 -24 -11 -39 -25 -32 -29 -40 -31 -52 -8 -7 11
-5 28 5 52 19 46 39 122 48 186 4 28 11 59 15 70 8 22 187 205 200 205 13 0
60 60 60 75 0 8 52 51 115 96 103 73 143 112 99 95 -9 -3 -27 -9 -40 -12 -19
-5 -23 -3 -18 10 5 13 -2 12 -42 -6 -105 -46 -260 -163 -270 -203 -3 -14 -11
-25 -18 -25 -6 0 -24 -12 -41 -26 -40 -34 -42 -17 -6 42 52 84 63 106 56 112
-4 4 -11 -1 -16 -11 -12 -20 -29 -23 -29 -3 0 7 11 21 26 30 15 10 43 54 69
109 29 61 62 112 99 151 44 46 52 61 43 71 -13 15 -30 7 -95 -44 -46 -36 -231
-221 -249 -248 -16 -24 -33 -30 -33 -13 0 6 15 32 33 58 18 26 54 82 81 124
31 50 78 106 137 160 49 46 96 98 104 116 9 17 20 32 25 32 6 0 10 9 10 19 0
35 263 325 368 406 48 37 112 98 108 102 -2 3 -17 -3 -33 -12 l-28 -17 30 27
c17 14 73 56 125 92 52 36 112 79 133 95 66 51 301 172 388 200 46 15 120 35
164 45 56 12 72 19 52 21 -16 2 -27 8 -25 14 4 10 81 60 208 135 56 34 230
165 256 194 12 14 -4 7 -48 -19 -123 -75 -392 -201 -463 -218 l-30 -6 35 30
c19 17 30 31 25 32 -6 0 -15 -4 -20 -9 -19 -19 -261 -139 -305 -152 -25 -7
-49 -16 -55 -20 -5 -4 -30 -12 -55 -19 -58 -16 -210 -90 -263 -130 -23 -17
-78 -55 -122 -85 -44 -30 -107 -72 -140 -95 -58 -40 -118 -91 -253 -215 -68
-63 -149 -159 -198 -235 -43 -68 -115 -150 -130 -150 -23 0 -16 23 17 55 31
31 83 129 94 180 7 29 6 29 -37 -16 -24 -26 -61 -68 -82 -94 -27 -33 -42 -43
-49 -36 -8 8 -4 22 11 50 12 21 22 50 22 64 0 14 26 64 58 114 32 48 67 108
77 133 11 25 29 61 41 80 11 19 27 53 34 75 7 22 21 57 31 77 30 60 22 64 -20
10 -22 -27 -91 -103 -153 -167 -62 -64 -117 -125 -122 -134 -5 -9 -23 -32 -41
-51 -38 -41 -124 -167 -153 -225 -11 -22 -41 -71 -66 -110 -48 -74 -58 -99
-28 -72 25 23 35 21 27 -3 -3 -11 -3 -20 2 -20 4 0 9 -69 10 -153 1 -83 3
-204 4 -267 1 -75 -3 -125 -12 -145 -18 -42 -25 -235 -8 -245 14 -9 14 -56 0
-138 -10 -56 -15 -129 -12 -165 1 -14 6 -17 21 -12 11 3 20 5 20 3 0 -2 -14
-46 -30 -98 -43 -134 -67 -240 -80 -350 -15 -132 -43 -214 -155 -465 -7 -16
-18 -49 -25 -73 -21 -81 -142 -302 -198 -360 -29 -31 -75 -106 -108 -177 -19
-41 -39 -75 -44 -75 -4 0 9 51 30 113 21 61 41 129 45 149 4 21 13 42 21 49
17 14 19 33 3 23 -7 -4 -10 -1 -7 7 3 8 12 13 21 11 11 -2 19 7 23 25 4 15 11
33 15 39 16 20 115 228 143 299 15 39 45 112 67 164 22 51 38 98 36 104 -5 16
-77 -81 -121 -164 -22 -41 -41 -69 -43 -63 -2 5 10 52 26 104 30 93 34 124 11
78 -28 -52 -103 -168 -107 -164 -2 2 7 27 21 55 15 28 35 72 45 98 15 39 116
255 139 298 12 23 -39 -30 -64 -66 -27 -39 -44 -50 -44 -27 0 6 6 19 14 27 7
9 30 48 50 86 21 39 53 88 71 111 40 48 80 122 71 131 -9 10 -48 -14 -107 -66
-29 -25 -49 -40 -44 -32 6 11 4 13 -9 8 -25 -10 -15 18 56 147 32 59 57 113
56 118 -2 5 -21 -7 -41 -26 -21 -20 -47 -36 -58 -36 -21 0 -25 10 -8 27 5 5
11 22 13 37 2 16 7 31 13 34 11 8 35 72 26 72 -3 0 -23 -16 -44 -35 -22 -19
-44 -35 -51 -35 -6 0 -22 -10 -35 -22 -33 -31 -30 -5 7 57 16 28 30 54 30 58
0 15 -44 -5 -75 -33 -55 -50 -153 -120 -203 -145 -59 -29 -60 -29 -64 -10 -3
13 -6 13 -32 0 -16 -9 -31 -14 -32 -12 -5 5 67 100 83 110 20 13 104 128 114
156 5 14 55 72 112 127 160 159 257 268 257 291 0 4 14 34 31 66 26 51 28 57
11 48 -11 -6 -22 -15 -24 -19 -11 -29 -231 -202 -242 -191 -3 2 22 47 54 99
33 52 65 105 72 117 7 12 34 51 60 88 27 36 48 68 48 71 0 12 -47 -23 -110
-83 -39 -36 -70 -61 -70 -55 0 10 50 86 107 160 19 25 44 63 55 86 12 23 26
45 33 51 22 18 95 136 95 152 0 4 -15 -7 -32 -23 -53 -49 -129 -107 -134 -102
-5 6 106 158 129 176 8 7 19 27 22 43 4 16 29 68 57 116 55 96 84 161 75 170
-8 7 -41 -29 -147 -161 -25 -31 -69 -84 -97 -119 -29 -34 -53 -67 -53 -73 0
-6 -19 -26 -42 -44 l-41 -34 6 34 c7 32 34 82 100 184 24 37 29 50 18 54 -8 3
41 58 131 146 150 147 215 238 253 351 20 57 85 159 143 224 70 78 67 44 -8
-104 -39 -77 -82 -169 -94 -205 -42 -117 -56 -155 -65 -175 -26 -58 -40 -105
-31 -105 12 0 103 105 115 134 6 13 29 42 52 66 23 23 54 66 69 95 14 30 33
60 41 66 8 7 31 38 51 68 20 31 52 79 72 106 20 28 42 61 49 75 11 24 60 92
153 216 20 28 55 64 75 80 42 33 172 114 184 114 5 0 36 16 70 36 45 27 58 39
48 45 -22 14 -151 10 -179 -4 -14 -8 -40 -19 -59 -25 -44 -15 -29 4 34 44 25
15 47 36 51 46 4 13 16 18 43 18 74 0 99 10 106 41 8 34 56 66 152 100 l63 23
57 -27 c66 -30 142 -51 151 -42 4 4 -1 11 -11 16 -21 12 -50 66 -42 79 15 24
143 8 295 -35 30 -8 65 -15 77 -15 37 0 27 -18 -27 -48 -27 -15 -50 -30 -50
-33 0 -4 19 -2 43 2 76 15 127 22 127 16 0 -3 -24 -19 -53 -36 -29 -16 -85
-57 -124 -89 -82 -69 -97 -78 -166 -99 -53 -15 -119 -42 -282 -115 -97 -43
-300 -161 -286 -166 4 -1 60 22 123 52 199 94 338 123 543 113 63 -3 132 -1
153 4 70 19 237 72 247 80 6 4 39 17 75 29 36 12 115 42 175 65 61 24 142 55
180 70 39 15 72 30 75 34 3 3 25 17 50 30 69 37 153 96 214 149 36 32 73 54
108 64 68 20 200 69 258 95 56 26 224 78 445 138 278 76 289 80 301 105 7 12
25 31 40 42 38 25 172 93 204 103 14 4 67 36 118 71 84 58 194 114 223 114 6
0 45 15 87 34 43 18 114 43 159 55 95 24 93 24 93 11 0 -5 -12 -13 -27 -16
-14 -4 -72 -28 -127 -54 -56 -26 -132 -59 -171 -73 -138 -50 -264 -130 -340
-217 -142 -162 -208 -218 -291 -246 -26 -9 -64 -26 -83 -38 -63 -39 -217 -105
-277 -120 -83 -20 -172 -48 -299 -94 -274 -99 -299 -112 -221 -112 59 0 53
-11 -21 -40 -123 -47 -141 -58 -135 -85 2 -14 7 -27 11 -29 4 -3 54 2 111 9
180 24 182 23 55 -45 -81 -42 -107 -60 -89 -60 9 0 52 9 224 49 47 11 141 29
210 41 129 21 247 45 312 61 27 7 43 6 57 -3 16 -10 28 -8 68 9 49 22 78 31
258 85 58 17 138 51 189 80 138 77 265 133 401 175 64 19 244 92 270 108 11 7
45 24 75 36 50 21 103 52 215 128 41 27 51 31 214 95 90 35 281 76 357 76 19
0 62 9 96 21 33 11 96 24 139 29 43 5 96 18 118 29 22 12 45 21 52 21 17 0
404 195 435 219 15 12 33 21 41 21 7 0 18 10 24 23 6 13 25 30 42 39 18 8 69
34 114 56 88 45 126 54 103 26 -24 -28 -178 -134 -226 -156 -58 -25 -174 -97
-232 -144 -28 -21 -54 -34 -73 -34 -35 0 -93 -23 -104 -40 -5 -7 -8 -27 -9
-44 -1 -28 -7 -34 -76 -68 -75 -37 -193 -69 -330 -88 -133 -19 -267 -67 -452
-161 -75 -38 -174 -82 -272 -120 -27 -10 -52 -22 -55 -27 -6 -8 -36 -25 -91
-52 -14 -6 -61 -45 -105 -87 -77 -72 -79 -75 -45 -68 19 4 54 16 78 26 66 28
145 46 280 64 68 9 140 22 160 30 40 15 186 59 327 99 91 25 206 49 212 43 9
-10 -54 -52 -118 -78 -40 -17 -76 -33 -79 -37 -29 -38 -155 -95 -215 -97 -39
-1 -74 -13 -157 -54 -72 -35 -105 -57 -102 -66 3 -7 -9 -24 -28 -38 -51 -39
-255 -159 -348 -206 -46 -24 -104 -57 -129 -74 -25 -18 -50 -35 -55 -39 -6 -4
-8 -10 -4 -13 3 -3 32 8 65 24 32 17 90 43 128 59 39 16 140 60 225 97 198 85
200 86 295 125 44 19 89 41 100 50 24 20 197 81 310 109 108 28 272 84 315
110 46 26 120 53 120 42 0 -22 -272 -212 -382 -266 -73 -37 -178 -99 -178
-106 0 -10 115 -59 139 -59 29 0 396 155 431 182 102 78 149 111 206 144 37
22 95 64 131 95 35 32 76 60 91 64 15 3 66 33 114 66 47 32 90 59 95 59 5 0
23 11 41 23 17 13 62 36 99 51 68 28 95 39 167 70 21 9 41 14 44 11 3 -3 3 -7
1 -9 -12 -10 -120 -76 -125 -76 -16 0 -123 -79 -211 -158 -57 -50 -112 -93
-123 -97 -11 -3 -20 -10 -20 -15 0 -5 -6 -10 -14 -12 -7 -2 -41 -35 -75 -75
-34 -40 -92 -93 -129 -118 -37 -25 -91 -62 -119 -83 -29 -20 -74 -48 -100 -62
-74 -38 -199 -123 -186 -127 6 -2 37 8 69 22 33 15 113 46 179 70 66 24 158
60 204 80 47 20 91 34 98 33 19 -4 -110 -112 -183 -153 -53 -30 -129 -95 -111
-95 20 0 263 97 334 133 45 23 128 66 186 95 95 48 177 113 177 141 0 8 132
111 214 167 86 58 258 135 272 121 9 -9 -111 -132 -145 -149 -20 -10 -57 -35
-82 -55 -76 -63 -110 -90 -197 -152 -46 -32 -92 -72 -102 -89 -11 -18 -30 -33
-47 -36 -34 -8 -63 -26 -129 -83 -27 -23 -60 -51 -74 -61 -14 -11 -22 -24 -18
-28 8 -7 267 62 363 97 28 10 94 34 148 54 54 19 103 33 109 29 6 -4 -5 -20
-28 -40 l-39 -34 30 5 c17 3 84 12 149 21 66 8 123 17 127 20 4 2 45 11 91 20
109 20 170 39 243 74 70 33 85 29 36 -9 -19 -14 -46 -36 -60 -49 l-26 -22 30
6 c74 16 192 62 329 131 161 80 215 93 131 31 -101 -75 -138 -103 -154 -119
-9 -9 -50 -41 -91 -72 -41 -31 -89 -67 -106 -81 -55 -45 -127 -92 -193 -127
-95 -49 -56 -50 124 -3 28 7 74 16 104 20 57 7 129 48 236 135 28 22 75 56
105 76 30 20 75 53 100 74 42 34 94 64 210 120 252 121 292 135 449 169 111
24 101 23 101 9 0 -5 -17 -17 -37 -25 -21 -8 -50 -21 -64 -29 -14 -8 -59 -25
-100 -39 -218 -73 -249 -90 -350 -193 -95 -98 -156 -182 -139 -193 30 -19 -53
-111 -171 -190 -35 -24 -75 -53 -89 -66 -27 -25 -186 -124 -199 -124 -4 0 -45
-22 -90 -50 -45 -27 -86 -50 -90 -50 -5 0 -14 -7 -21 -15 -7 -8 -10 -15 -7
-15 2 0 24 7 47 15 49 17 50 17 50 8 0 -5 -17 -19 -38 -33 -20 -14 -39 -27
-42 -30 -3 -3 -31 -25 -63 -49 -32 -24 -60 -48 -64 -54 -7 -12 56 -2 172 28
131 35 356 78 363 70 10 -10 -25 -34 -98 -67 -160 -73 -196 -93 -172 -96 12
-2 22 -7 22 -12 0 -5 -47 -32 -105 -60 -58 -29 -108 -57 -111 -62 -9 -14 92
-1 171 22 33 9 96 23 139 30 44 6 85 14 93 17 7 3 13 -2 13 -10 0 -10 -28 -30
-72 -51 -40 -19 -91 -50 -113 -70 l-40 -35 155 -1 c175 0 317 13 373 35 20 8
72 19 115 25 42 5 126 18 186 29 94 17 118 25 185 66 142 89 287 155 315 145
17 -6 17 -7 -5 -22 -13 -8 -46 -25 -74 -37 -27 -12 -79 -41 -115 -65 -36 -23
-91 -60 -124 -81 -32 -22 -68 -52 -80 -68 -11 -16 -34 -36 -51 -44 -29 -15
-43 -28 -166 -144 -31 -30 -83 -70 -114 -89 -32 -19 -74 -50 -94 -68 l-36 -33
35 7 c47 9 206 67 313 116 127 57 205 84 260 91 68 9 62 -15 -10 -44 -32 -12
-89 -46 -128 -74 -89 -66 -213 -143 -290 -180 -33 -15 -72 -37 -87 -47 l-28
-19 39 -77 c21 -42 44 -101 50 -130 15 -70 14 -77 -4 -62 -13 10 -15 9 -15
-10 0 -13 8 -24 20 -27 17 -4 19 -11 14 -42 -4 -22 1 -59 10 -91 19 -63 18
-60 7 -60 -4 0 -20 17 -34 38 -35 53 -173 193 -232 237 -27 21 -66 52 -85 69
-40 37 -206 218 -265 290 -22 26 -54 58 -71 70 -18 11 -69 50 -114 85 -46 35
-104 74 -129 87 -25 12 -55 32 -66 44 -11 12 -48 45 -82 72 -35 27 -63 55 -63
62 0 17 46 58 100 89 25 14 57 35 70 47 l25 21 -35 -5 c-19 -4 -57 -17 -85
-31 -50 -25 -208 -82 -255 -93 -35 -7 -70 -32 -70 -48 0 -8 4 -14 8 -14 4 0
39 -29 77 -65 74 -69 216 -169 331 -231 116 -63 206 -128 270 -195 309 -323
314 -329 314 -360 0 -23 58 -101 110 -149 3 -3 27 -32 52 -65 25 -33 56 -69
68 -80 37 -33 50 -70 50 -140 0 -49 -3 -66 -12 -63 -8 3 -14 26 -16 56 -2 42
-8 55 -27 68 -14 9 -69 68 -122 132 -98 115 -189 218 -208 234 -5 4 -23 20
-39 34 -16 14 -47 37 -70 52 -22 15 -47 33 -55 40 -14 14 -78 58 -113 78 -11
7 -34 25 -51 42 -53 49 -249 193 -294 215 -24 12 -43 25 -43 29 0 4 -7 8 -15
8 -9 0 -44 15 -78 34 -117 64 -152 81 -227 110 -41 16 -90 35 -107 42 -18 7
-33 18 -33 24 0 6 14 36 32 67 37 66 26 66 -53 -3 -82 -71 -84 -120 -5 -143
49 -15 130 -45 146 -56 8 -5 66 -35 130 -66 63 -32 126 -68 140 -81 47 -44
135 -106 186 -131 72 -36 174 -119 224 -183 15 -18 14 -18 -15 0 -16 10 -45
30 -62 43 -23 16 -33 20 -33 10 0 -16 43 -56 91 -85 20 -12 58 -46 85 -75 120
-131 142 -153 170 -168 17 -9 54 -47 82 -85 28 -38 72 -86 97 -108 73 -60 173
-209 121 -179 -7 4 -63 55 -122 112 -60 58 -132 119 -161 138 -29 18 -56 39
-60 46 -7 13 -23 24 -138 95 -22 14 -59 38 -82 54 -47 32 -58 35 -49 13 3 -8
3 -15 0 -15 -2 0 -53 23 -112 51 -59 28 -116 54 -127 58 -78 31 -140 62 -205
99 -41 24 -100 58 -130 74 -30 17 -64 39 -76 49 -11 11 -31 19 -45 19 -14 0
-68 22 -120 49 -87 44 -307 130 -372 145 -15 4 -60 11 -100 16 -160 22 -214
31 -276 50 -35 11 -66 19 -68 17 -10 -11 145 -72 243 -97 122 -32 270 -88 325
-124 20 -13 69 -41 110 -61 41 -21 97 -52 124 -70 82 -53 128 -79 170 -98 63
-29 226 -94 267 -107 20 -6 53 -22 73 -36 20 -13 40 -24 44 -24 5 0 15 -7 22
-16 8 -9 32 -28 54 -42 22 -14 66 -45 99 -69 42 -32 61 -41 66 -33 6 9 18 5
44 -15 20 -15 36 -31 36 -36 0 -4 26 -29 58 -54 31 -26 65 -61 74 -78 10 -17
39 -54 66 -81 58 -61 117 -135 159 -196 40 -60 113 -202 113 -220 -1 -11 -3
-11 -11 3 -5 9 -18 17 -28 17 -13 0 -217 202 -251 249 -3 4 -30 27 -61 52 -31
25 -71 61 -88 81 -17 19 -77 64 -133 100 -146 91 -171 99 -96 28 23 -22 39
-42 36 -45 -8 -9 -324 159 -461 244 -44 27 -60 21 -29 -12 47 -50 19 -43 -129
30 -60 29 -113 53 -119 53 -5 0 -54 17 -107 39 -118 46 -212 75 -313 96 -41 8
-136 28 -210 44 -242 52 -300 50 -110 -3 52 -15 136 -42 185 -61 50 -18 140
-50 200 -69 66 -22 136 -53 175 -78 96 -62 154 -93 250 -133 155 -64 499 -259
562 -317 43 -41 119 -98 151 -115 20 -11 68 -51 107 -89 39 -38 79 -73 88 -78
9 -5 35 -24 56 -43 22 -18 44 -33 49 -33 21 0 69 -45 89 -83 11 -23 38 -62 58
-87 85 -102 72 -126 -21 -39 -35 34 -87 79 -116 100 -29 21 -78 64 -110 95
-82 79 -232 191 -363 271 -62 37 -129 78 -149 90 -20 12 -48 27 -63 33 -15 7
-44 20 -64 31 -21 10 -44 19 -51 19 -7 0 -13 5 -13 11 0 5 -8 9 -17 7 -10 -1
-31 6 -46 16 -15 11 -41 19 -58 18 -19 0 -34 6 -42 19 -6 10 -22 19 -34 19
-12 0 -25 5 -28 11 -4 6 -14 8 -22 5 -9 -4 -21 -2 -28 4 -16 13 -192 60 -225
60 -17 -1 -5 -9 40 -29 36 -16 85 -38 110 -50 l45 -21 -40 5 c-131 18 -313 26
-480 20 -121 -4 -224 -2 -280 5 -68 9 -119 8 -210 -1 -66 -6 -124 -15 -128
-19 -12 -10 33 -20 113 -24 125 -7 320 -42 320 -58 0 -4 -50 -5 -112 -2 -129
8 -216 6 -236 -5 -16 -9 107 -41 191 -48 36 -4 61 -11 64 -19 6 -17 55 -18
121 -3 60 14 442 -3 587 -26 49 -7 126 -19 170 -25 96 -14 202 -44 230 -66 19
-16 19 -16 -5 -9 l-25 6 26 -23 c50 -44 144 -115 204 -155 57 -38 155 -107
275 -193 176 -128 308 -280 323 -374 3 -21 8 -41 11 -43 3 -3 60 -5 128 -4
124 1 212 14 258 38 25 13 40 9 24 -6 -9 -9 -152 -82 -266 -136 -69 -33 -78
-43 -67 -73 l9 -23 82 44 c46 25 148 66 227 92 144 46 347 137 399 178 61 49
138 94 147 86 8 -9 -206 -195 -256 -222 -29 -15 -77 -42 -108 -60 -31 -18 -67
-39 -81 -46 -14 -6 -50 -45 -80 -86 -41 -56 -69 -82 -119 -112 -36 -21 -73
-42 -82 -48 -9 -5 -34 -20 -55 -32 -64 -37 -78 -51 -67 -65 6 -7 13 -33 17
-57 4 -28 18 -57 36 -78 19 -21 30 -45 30 -63 0 -15 3 -35 6 -44 5 -12 0 -16
-19 -16 -20 0 -42 22 -111 114 -47 62 -86 118 -86 124 0 6 18 26 40 43 44 36
125 137 116 146 -3 3 -53 -11 -112 -31 -122 -42 -121 -43 -148 41 -9 29 -27
69 -41 88 -13 20 -27 44 -30 53 -3 9 -26 33 -51 52 -84 65 -107 89 -101 104 5
12 17 14 59 9 l53 -6 -22 25 c-13 13 -23 28 -23 32 0 15 -46 48 -90 66 -14 6
-33 15 -42 20 -10 6 -24 10 -32 10 -7 0 -20 7 -27 17 -16 19 -11 18 115 -16
43 -12 80 -20 83 -18 4 4 -43 35 -149 97 -58 34 -71 50 -42 50 15 0 50 28 43
34 -24 22 -121 59 -171 66 -128 19 -150 9 -68 -31 27 -13 50 -28 50 -33 0 -4
-7 -5 -16 -2 -29 11 -186 36 -264 43 -41 3 -99 12 -129 19 -30 8 -56 12 -58
10 -2 -2 13 -19 33 -39 37 -36 37 -36 13 -41 -42 -10 -216 -26 -276 -26 l-57
0 46 -29 c25 -16 48 -34 52 -39 15 -25 -268 -53 -340 -33 -46 13 -51 9 -31
-22 l15 -23 -97 2 c-53 1 -113 3 -134 3 -34 1 -38 3 -32 21 5 16 2 20 -17 20
-30 0 -126 -26 -141 -38 -7 -5 -20 -12 -30 -15 -14 -5 -16 -2 -11 18 7 30 -5
32 -39 5 -17 -14 -34 -18 -54 -14 -22 4 -41 -3 -87 -35 -33 -22 -64 -37 -69
-34 -5 3 -6 21 -2 39 3 19 3 34 -1 34 -4 0 -30 -21 -59 -48 -28 -26 -82 -72
-119 -102 -37 -30 -74 -61 -81 -68 -28 -25 -27 33 3 136 23 78 17 87 -30 47
-71 -60 -118 -128 -145 -212 -20 -63 -24 -86 -16 -91 9 -6 10 -23 4 -61 -14
-87 2 -115 34 -63 31 48 58 73 66 61 4 -7 15 -1 29 19 l22 30 28 -32 c27 -29
30 -30 60 -19 31 12 32 11 26 -12 -6 -23 -4 -24 19 -15 14 5 36 9 49 8 13 -1
42 6 66 17 33 15 43 16 50 6 5 -9 13 -10 21 -5 12 7 89 14 89 8 0 -2 -5 -15
-12 -29 -15 -34 -8 -38 35 -20 45 19 48 19 41 0 -5 -12 4 -15 48 -15 68 0 114
-15 121 -40 2 -10 29 -33 58 -52 53 -34 55 -34 98 -21 26 7 93 13 160 13 97 0
134 -5 226 -30 132 -36 194 -38 255 -8 l45 22 -37 4 c-21 2 -38 7 -38 12 0 14
130 58 191 65 81 9 159 -15 193 -59 30 -40 121 -94 158 -93 14 0 47 -15 73
-33 44 -30 49 -31 60 -17 16 23 24 21 69 -13 33 -25 46 -29 75 -24 20 4 40 10
46 15 5 5 23 9 40 9 16 0 39 7 49 15 11 8 26 15 34 15 22 0 -13 -37 -52 -55
-51 -24 -88 -59 -82 -75 4 -8 26 -28 51 -43 25 -16 45 -33 45 -38 0 -5 7 -9
16 -9 25 0 168 -120 197 -165 40 -61 78 -105 94 -105 8 0 28 7 44 16 17 8 39
17 48 19 9 2 61 24 114 49 54 25 102 46 107 46 5 0 30 7 55 16 25 8 58 17 73
19 15 2 64 13 110 24 114 29 196 37 190 19 -2 -7 -21 -22 -41 -33 -64 -35
-150 -97 -232 -169 -104 -90 -256 -248 -253 -262 4 -15 119 -114 133 -114 6 0
23 -19 38 -42 15 -24 43 -58 62 -77 36 -35 75 -109 75 -142 0 -31 25 -21 38
14 16 46 15 94 -4 151 -9 26 -14 49 -11 52 3 3 29 12 59 19 29 8 112 43 183
79 104 51 154 84 252 164 116 96 198 150 211 138 3 -3 -12 -23 -34 -43 -46
-45 -79 -93 -63 -93 6 0 29 13 52 29 108 75 166 107 217 117 30 7 65 15 78 19
27 9 30 -6 3 -20 -10 -6 -56 -30 -101 -53 -109 -57 -222 -170 -369 -367 -119
-159 -121 -163 -121 -176 0 -17 39 -78 81 -127 45 -51 82 -112 69 -112 -4 0
-10 4 -12 8 -7 18 -148 73 -148 58 0 -9 45 -80 62 -97 28 -29 77 -113 71 -123
-4 -5 -14 0 -24 12 -27 34 -32 27 -25 -30 22 -171 43 -477 32 -470 -17 10 3
-100 24 -136 19 -32 20 -40 10 -79 -15 -51 -9 -205 8 -226 7 -7 10 -16 8 -18
-2 -2 -11 -47 -20 -99 -15 -90 -15 -100 2 -180 11 -47 29 -105 42 -129 23 -46
23 -67 4 -234 -8 -71 -24 -85 -24 -20 0 26 -14 93 -32 148 -29 91 -32 97 -39
71 -5 -17 -11 -68 -14 -114 -3 -46 -7 -87 -9 -90 -10 -17 -15 -85 -7 -100 6
-11 4 -51 -3 -107 -7 -50 -14 -119 -15 -155 -1 -36 -6 -90 -11 -120 -4 -30
-18 -122 -30 -205 -12 -82 -30 -181 -40 -220 -41 -157 -110 -384 -135 -450
-15 -38 -44 -122 -65 -185 -21 -63 -41 -123 -45 -133 -7 -16 4 -17 137 -17
l144 0 -1 28 c0 20 4 26 18 24 9 -2 17 3 17 11 0 9 14 13 53 12 28 -1 57 2 63
6 6 5 33 12 60 15 27 3 73 14 102 25 28 10 55 19 60 19 18 1 42 12 42 21 0 5
7 9 16 9 8 0 49 34 90 76 68 69 85 81 120 83 16 1 50 68 84 166 18 48 54 128
81 176 27 49 49 92 49 95 0 3 26 33 58 66 40 42 65 79 84 126 15 37 46 91 70
121 24 30 49 63 55 75 7 12 17 20 23 19 5 -2 7 4 4 12 -4 8 1 17 10 21 9 3 16
15 16 25 0 10 4 19 9 19 5 0 12 14 16 31 5 20 11 29 21 25 9 -3 14 1 14 13 0
16 105 165 148 209 23 25 2 30 -46 13 -28 -10 -70 -39 -101 -69 -30 -29 -59
-52 -64 -52 -21 0 -86 -35 -87 -47 0 -6 -8 -14 -19 -18 -26 -8 -142 -133 -166
-179 -11 -21 -33 -49 -48 -62 -16 -13 -25 -29 -21 -35 3 -6 1 -15 -6 -19 -7
-5 -14 -21 -15 -37 -4 -43 -35 -144 -52 -168 -13 -18 -14 -15 -8 35 4 30 13
66 20 80 15 28 27 60 30 75 1 11 9 44 31 128 16 59 39 97 60 97 15 0 74 67 74
83 0 7 -13 23 -29 35 l-29 21 14 58 c8 32 16 67 19 78 3 19 30 99 46 140 5 14
8 7 8 -27 1 -26 -3 -49 -7 -52 -15 -9 0 -67 24 -93 13 -14 24 -30 24 -34 0 -5
27 -9 59 -9 53 0 63 4 103 36 23 20 56 55 71 78 16 22 32 42 37 44 12 4 69 89
81 119 8 22 7 23 -19 17 -16 -4 -55 -36 -93 -78 -37 -39 -69 -69 -72 -66 -3 3
0 30 7 60 6 30 11 89 10 130 -2 62 1 84 21 125 26 55 30 91 19 175 -11 92 -9
115 20 173 29 60 48 77 138 121 64 32 95 56 182 139 33 31 65 57 71 57 5 0 35
23 65 50 46 41 52 51 40 60 -8 6 -36 9 -62 7 -37 -3 -56 -12 -88 -40 -22 -21
-50 -37 -62 -37 -12 0 -31 -8 -42 -18 -35 -30 -340 -122 -355 -106 -3 3 5 14
19 25 74 56 92 94 38 78 -18 -5 -53 -9 -78 -9 -36 0 -52 6 -78 29 -29 28 -32
35 -32 93 -1 80 -22 173 -40 173 -7 0 -19 -16 -26 -35 l-12 -35 0 50 c0 87 7
99 65 110 62 12 68 17 51 44 -17 28 -71 45 -121 37 -37 -6 -39 -6 -26 11 8 10
19 21 24 26 13 9 -13 27 -40 26 -11 0 -38 -6 -60 -14 -46 -16 -55 -13 -32 13
10 10 17 24 17 30 0 7 4 12 10 12 5 0 13 12 16 28 4 15 15 36 25 47 11 13 19
39 21 75 3 52 5 55 33 61 29 5 85 -16 85 -32 0 -4 14 -21 30 -38 28 -27 31
-37 37 -120 6 -85 7 -90 23 -76 10 9 22 44 28 83 6 37 16 68 23 71 20 6 79 63
79 76 0 9 -16 12 -52 11 -45 -1 -53 2 -56 19 -6 38 -55 120 -85 145 -29 23
-39 25 -119 23 -112 -3 -195 -37 -224 -93 -11 -19 -27 -43 -37 -53 -17 -17
-17 -16 -11 10 20 79 66 131 161 184 40 22 75 44 78 49 3 4 27 11 55 15 38 5
65 2 115 -15 61 -20 68 -26 121 -98 31 -42 63 -81 72 -86 28 -16 93 -7 122 18
15 12 43 29 61 36 32 13 59 32 134 95 141 119 173 160 194 250 14 61 41 125
53 125 4 0 8 7 8 15 0 30 50 92 174 215 102 100 126 129 126 152 0 15 -4 28
-9 28 -5 0 -43 -26 -83 -58 -40 -31 -85 -65 -100 -74 -14 -10 -29 -27 -33 -38
-3 -11 -13 -20 -21 -20 -8 0 -14 -7 -14 -15 0 -17 -78 -81 -95 -77 -18 3 -71
-53 -120 -128 -48 -74 -86 -110 -115 -110 -22 0 -27 15 -9 26 8 4 9 29 5 76
-5 47 -2 105 10 179 15 98 20 115 50 151 19 22 38 46 42 52 12 21 95 72 156
96 51 21 146 97 146 119 0 3 22 29 48 58 26 28 68 80 95 116 40 55 47 71 47
111 0 44 -1 46 -20 36 -25 -14 -25 -4 0 38 16 26 20 50 20 127 0 86 -8 113
-25 85 -3 -5 -13 -10 -21 -10 -24 0 -16 78 16 160 l30 75 0 372 c0 332 -2 372
-15 366 -32 -12 -46 26 -39 112 3 44 11 86 17 94 35 42 37 78 37 723 l0 637
-29 43 c-16 24 -45 58 -65 76 -20 18 -36 38 -36 45 0 6 11 34 24 62 14 27 32
93 40 145 9 55 26 115 41 143 l25 49 0 1048 0 1049 -40 -21 c-44 -24 -76 -50
-82 -68 -7 -23 -147 -41 -272 -35 -65 3 -123 8 -128 11 -5 3 -19 7 -31 9 -12
1 -57 13 -100 26 -68 20 -81 21 -113 10 -44 -16 -265 -52 -276 -45 -4 3 -52
10 -106 15 -53 5 -159 21 -235 35 l-138 26 -72 -33 c-97 -44 -179 -45 -264 -3
-89 44 -133 73 -133 88 0 22 73 66 109 66 54 0 202 47 282 89 173 92 306 135
510 166 19 3 58 20 85 37 27 18 66 40 86 50 21 9 43 28 49 42 7 13 24 30 40
36 16 7 59 44 97 84 52 55 73 86 91 136 30 83 91 177 172 266 10 12 31 25 47
29 15 3 54 19 87 34 33 16 71 32 85 36 14 4 42 19 62 33 l38 25 0 73 c0 64 3
76 27 106 35 43 69 75 99 95 l24 15 0 200 0 199 -22 -6 c-13 -4 -39 -15 -58
-24 -19 -10 -50 -21 -68 -24 -19 -4 -48 -13 -65 -20 -18 -8 -59 -24 -92 -37
-102 -39 -327 -158 -380 -199 -27 -22 -63 -48 -80 -57 -16 -9 -49 -34 -72 -55
-24 -22 -47 -39 -52 -39 -15 0 -179 -126 -211 -163 -16 -19 -45 -45 -65 -58
-39 -27 -44 -39 -15 -39 10 0 24 -9 30 -19 8 -16 3 -27 -26 -63 -49 -59 -91
-82 -209 -114 -151 -40 -165 -42 -365 -54 -102 -5 -194 -12 -205 -15 -11 -2
-38 1 -60 6 -22 6 -55 14 -74 17 -19 4 -36 12 -38 19 -4 12 129 83 156 83 9 0
52 17 96 39 44 21 91 42 105 46 14 4 39 18 57 31 17 13 38 24 45 24 19 0 126
105 175 171 23 31 48 62 55 70 8 8 27 32 43 54 54 73 188 239 229 284 104 112
235 239 276 266 25 17 79 56 122 87 68 51 87 60 168 78 50 11 109 29 130 40
22 11 44 20 51 20 16 0 79 31 79 39 0 4 -53 -1 -117 -10 -106 -16 -129 -24
-228 -74 -80 -40 -115 -63 -127 -85 -11 -19 -25 -30 -39 -30 -23 0 -139 -58
-179 -90 -14 -11 -50 -39 -81 -63 -119 -89 -282 -233 -305 -268 -31 -50 -90
-98 -333 -275 -123 -89 -167 -112 -281 -149 -80 -26 -92 -27 -219 -21 -98 4
-139 9 -149 20 -12 12 -12 15 5 24 10 6 47 15 81 22 91 16 121 31 52 25 -30
-3 -122 -10 -205 -15 -153 -11 -231 -26 -307 -59 -24 -10 -92 -35 -153 -55
-123 -42 -173 -68 -240 -126 -25 -21 -62 -44 -83 -50 -51 -14 -184 -24 -217
-16 -25 6 -27 10 -21 44 11 68 90 246 115 258 25 13 61 66 61 89 0 29 113 132
180 165 36 18 81 46 102 61 65 52 100 61 207 54 132 -9 332 22 402 62 114 65
208 145 241 202 17 31 38 64 46 74 8 9 12 20 8 24 -3 4 -37 -22 -74 -58 -81
-79 -122 -105 -228 -147 -95 -37 -110 -38 -274 -23 -111 10 -142 9 -275 -9
-83 -11 -188 -25 -234 -31 -79 -9 -91 -14 -167 -64 -45 -30 -100 -70 -122 -88
-22 -17 -58 -43 -79 -56 -21 -13 -60 -48 -86 -78 -119 -135 -304 -287 -410
-337 -72 -34 -84 -37 -155 -34 -55 2 -76 7 -75 16 2 8 -10 12 -37 12 -25 0
-51 8 -69 20 -32 25 -184 49 -303 50 -91 0 -150 20 -166 56 -17 37 -1 66 67
117 76 58 94 67 216 107 191 62 220 73 300 110 62 28 90 49 125 89 25 29 50
61 55 71 6 10 28 32 50 49 67 51 75 63 97 136 16 53 30 78 60 106 24 23 38 45
38 60 0 14 20 57 45 97 25 40 45 75 45 77 0 23 109 119 173 153 34 19 77 43
95 54 18 11 55 28 83 38 28 11 62 26 76 35 l25 17 -49 44 c-49 44 -90 56 -123
34z m-1753 -1296 c45 -26 87 -75 96 -111 19 -80 -172 -140 -413 -130 -138 6
-230 27 -230 54 0 40 121 118 165 107 46 -11 116 17 169 69 l50 49 60 -7 c36
-4 79 -17 103 -31z m-2937 -68 c0 -23 -36 -42 -143 -77 -55 -18 -108 -40 -118
-50 -38 -38 -109 -63 -109 -38 0 13 9 21 89 76 130 92 152 102 219 103 47 0
62 -3 62 -14z m-524 -236 c25 0 15 -15 -26 -40 -38 -24 -84 -29 -103 -11 -10
10 84 62 101 56 8 -3 20 -5 28 -5z m2623 -1450 c-34 -20 -171 -52 -181 -42 -7
7 8 15 44 25 76 22 89 25 123 26 23 0 26 -2 14 -9z m3991 -462 c0 -18 -98 -48
-157 -48 -27 0 -64 -5 -82 -11 -34 -12 -90 -4 -75 11 16 15 128 43 204 50 41
4 83 7 93 8 9 1 17 -4 17 -10z m660 -3568 c-36 -27 -99 -60 -117 -60 -8 0 -27
-8 -41 -19 -15 -10 -43 -21 -62 -24 -19 -3 -43 -8 -52 -12 -10 -4 -18 -3 -18
1 0 10 77 44 99 44 7 0 36 15 63 33 43 27 105 51 143 55 6 1 -1 -7 -15 -18z
m-2180 -230 c18 -12 2 -12 -25 0 -13 6 -15 9 -5 9 8 0 22 -4 30 -9z m1644 -24
c-10 -8 -21 -12 -24 -10 -5 6 21 24 34 24 6 0 1 -6 -10 -14z m-39 -26 c-3 -5
-11 -10 -16 -10 -6 0 -7 5 -4 10 3 6 11 10 16 10 6 0 7 -4 4 -10z m-65 -34 c0
-3 -4 -8 -10 -11 -5 -3 -10 -1 -10 4 0 6 5 11 10 11 6 0 10 -2 10 -4z m1034
-918 c37 -52 8 -77 -86 -78 l-68 0 0 30 c0 29 13 40 25 20 3 -5 15 -10 25 -10
10 0 23 -7 28 -16 8 -14 12 -13 30 10 11 15 18 35 15 46 -7 27 12 25 31 -2z
m-10714 -3434 c0 -2 -7 -4 -15 -4 -8 0 -15 4 -15 10 0 5 7 7 15 4 8 -4 15 -8
15 -10z m9983 -297 c22 -22 37 -48 41 -73 9 -51 28 -104 37 -104 4 0 10 11 13
25 8 31 26 24 26 -10 0 -13 9 -44 20 -70 23 -53 17 -54 104 19 26 21 49 37 51
34 9 -9 -15 -72 -38 -97 -13 -14 -41 -50 -62 -80 -21 -30 -48 -64 -59 -76 -12
-12 -37 -40 -57 -62 -26 -29 -55 -46 -110 -66 -91 -32 -159 -50 -166 -43 -3 3
2 26 11 52 21 64 21 94 -2 94 -10 0 -23 -5 -30 -12 -13 -13 44 130 60 149 6 7
8 16 5 19 -9 9 -73 -33 -102 -67 l-25 -31 0 36 c0 35 14 78 35 106 6 8 17 43
23 77 7 34 20 79 28 100 15 34 17 36 29 19 19 -25 36 -11 28 24 -4 23 0 34 18
50 37 30 81 26 122 -13z m-9749 -393 c13 -34 -1 -110 -18 -93 -13 13 -23 88
-13 98 15 15 24 14 31 -5z m-26 -248 c-7 -6 -9 -7 -5 -2 4 5 2 15 -5 23 -8 10
-8 17 0 25 8 8 8 15 1 24 -7 8 -7 14 1 19 5 3 11 16 12 28 1 12 3 -7 5 -42 3
-44 0 -67 -9 -75z"/>
<path d="M5208 12909 c-21 -5 -64 -22 -95 -37 -32 -16 -92 -42 -133 -58 -121
-47 -32 -41 238 15 45 9 144 70 136 83 -7 10 -98 9 -146 -3z"/>
<path d="M9530 12888 c-69 -33 -67 -44 5 -34 42 7 95 38 95 57 0 17 -34 9
-100 -23z"/>
<path d="M8759 12700 c-33 -6 -64 -22 -105 -55 -33 -27 -60 -52 -62 -56 -2 -5
-11 -9 -20 -9 -15 0 -15 -2 -2 -10 22 -14 128 -3 174 19 23 11 82 25 131 32
76 11 215 58 215 73 0 2 -17 4 -37 3 -21 0 -85 2 -143 6 -58 3 -126 2 -151 -3z"/>
<path d="M13940 12669 c-39 -19 -43 -22 -25 -29 11 -5 35 -9 53 -9 29 -1 32 2
32 29 0 35 -2 36 -60 9z"/>
<path d="M6095 12672 c-17 -5 -25 -10 -19 -15 19 -11 232 -19 250 -9 16 9 16
10 -2 15 -33 10 -198 16 -229 9z"/>
<path d="M4445 12629 c-99 -23 -145 -40 -145 -54 0 -19 27 -19 64 0 15 8 33
15 40 16 6 0 38 11 71 24 62 25 47 32 -30 14z"/>
<path d="M4766 12579 c-43 -5 -95 -14 -115 -20 -57 -19 -144 -65 -165 -88
l-19 -21 44 -1 c75 -3 120 2 155 17 42 18 169 98 179 113 3 6 5 10 3 10 -2 -1
-38 -5 -82 -10z"/>
<path d="M350 12361 c-14 -27 -13 -31 8 -31 10 0 23 -5 30 -12 9 -9 12 -9 12
3 -1 54 -30 77 -50 40z"/>
<path d="M3635 12349 c-38 -17 -92 -50 -120 -75 l-50 -44 35 12 c79 26 254
140 213 138 -4 -1 -39 -14 -78 -31z"/>
<path d="M6681 12241 c-21 -14 -22 -38 -1 -44 13 -3 20 2 24 17 10 39 5 45
-23 27z"/>
<path d="M2567 12210 c6 -24 28 -26 37 -4 9 23 8 24 -18 24 -19 0 -23 -4 -19
-20z"/>
<path d="M1888 10919 c-15 -11 -44 -43 -65 -72 -21 -29 -74 -93 -118 -143
-143 -162 -156 -178 -189 -249 -42 -88 -55 -129 -76 -235 -10 -47 -21 -93 -25
-104 -7 -16 -5 -17 12 -7 33 17 97 95 131 159 24 45 32 73 32 113 1 37 6 61
19 76 23 28 81 63 104 63 10 0 38 20 62 43 39 39 49 61 95 195 57 169 60 192
18 161z"/>
<path d="M932 9624 c-27 -19 -29 -34 -3 -27 11 3 21 13 24 24 6 23 7 23 -21 3z"/>
<path d="M7375 8857 c-33 -17 -112 -59 -175 -94 -63 -34 -158 -77 -211 -96
-53 -19 -133 -55 -179 -81 -45 -25 -90 -46 -100 -46 -16 0 -44 -11 -195 -80
-126 -57 -382 -185 -418 -209 -23 -15 -61 -40 -83 -55 -51 -34 -126 -97 -121
-102 4 -5 67 28 167 87 98 58 198 97 420 167 36 11 83 23 105 27 42 7 153 43
170 55 6 4 24 10 40 14 17 4 44 14 60 21 56 25 146 55 163 55 26 0 111 48 184
102 35 26 73 55 86 64 21 14 21 17 8 27 -14 10 -7 20 46 66 35 29 71 67 80 82
10 16 17 29 15 29 -1 -1 -29 -15 -62 -33z"/>
<path d="M5588 8695 c-66 -24 -172 -92 -219 -142 -54 -57 -94 -113 -81 -113 6
0 22 15 37 33 14 17 38 45 53 61 28 30 156 95 230 117 46 13 48 17 30 41 -11
14 -18 14 -50 3z"/>
<path d="M4040 8654 c-8 -3 -20 -15 -26 -29 -11 -22 -10 -24 17 -23 16 1 29 7
29 14 0 7 3 19 6 28 6 16 2 17 -26 10z"/>
<path d="M5562 8473 c-22 -16 -69 -54 -105 -87 -87 -77 -118 -97 -242 -157
-58 -28 -105 -52 -105 -55 0 -7 67 6 137 28 40 12 87 38 133 72 79 60 240 206
240 218 0 14 -16 9 -58 -19z"/>
<path d="M3679 8449 c-31 -22 -79 -65 -105 -97 -27 -31 -71 -81 -98 -109 -89
-96 -31 -60 121 75 83 74 170 172 151 171 -7 0 -38 -18 -69 -40z"/>
<path d="M7245 8471 c-73 -27 -305 -160 -280 -161 21 0 102 29 170 61 58 27
111 62 170 111 15 13 -5 9 -60 -11z"/>
<path d="M6010 8429 c-52 -23 -145 -75 -207 -117 -132 -91 -233 -147 -288
-163 -22 -6 -94 -33 -160 -59 -78 -31 -172 -59 -270 -79 -82 -17 -202 -47
-265 -67 -412 -128 -636 -210 -621 -228 7 -8 -24 -29 -104 -69 -110 -56 -115
-60 -126 -99 -10 -40 -6 -88 9 -88 6 0 63 29 337 168 100 52 183 81 285 101
318 62 396 82 515 131 39 16 104 41 145 55 177 62 278 114 406 207 122 89 132
98 112 98 -31 0 -20 17 46 72 84 69 166 119 244 147 34 13 62 25 62 27 0 10
-33 0 -120 -37z"/>
<path d="M4305 8380 c-22 -11 -51 -19 -64 -20 -12 0 -44 -11 -70 -24 -25 -13
-80 -39 -121 -57 -41 -18 -108 -51 -149 -73 -88 -49 -216 -168 -223 -208 -7
-35 -1 -35 51 3 24 17 86 53 139 81 267 139 406 225 461 282 39 41 34 44 -24
16z"/>
<path d="M10302 8292 c29 -37 43 -40 44 -9 1 18 -4 22 -28 24 -27 2 -29 1 -16
-15z"/>
<path d="M9188 7963 c-21 -2 -38 -8 -38 -14 0 -5 17 -9 38 -9 141 0 446 -60
693 -137 l116 -35 84 43 c46 23 95 52 109 62 l25 20 -25 -6 c-77 -18 -112 -19
-162 -2 -150 50 -197 56 -463 65 -143 5 -278 11 -300 13 -22 3 -57 3 -77 0z"/>
<path d="M6150 7751 c8 -5 69 -28 135 -51 128 -45 235 -69 300 -68 l40 0 -35
9 c-19 4 -55 12 -80 18 -25 6 -97 28 -160 49 -109 37 -234 64 -200 43z"/>
<path d="M5645 7685 c-38 -7 -86 -19 -105 -28 -33 -14 -30 -15 73 -9 95 4 107
3 107 -11 0 -13 10 -17 44 -17 46 0 232 -30 301 -49 22 -6 74 -15 115 -21 41
-6 138 -27 215 -46 269 -69 276 -70 290 -50 12 15 20 16 72 7 32 -6 118 -29
191 -51 141 -43 168 -47 174 -28 3 9 33 9 134 0 71 -7 161 -12 200 -12 69 0
72 1 77 25 3 18 -1 29 -14 36 -11 5 -103 16 -207 24 -103 8 -224 24 -270 35
-45 11 -134 29 -197 40 -63 12 -147 32 -187 46 -67 22 -74 23 -85 8 -15 -21
-32 -19 -275 45 -270 70 -479 88 -653 56z"/>
<path d="M8801 7680 c-127 -4 -140 -6 -110 -17 100 -34 242 -48 384 -35 l80 7
-35 21 c-42 26 -113 31 -319 24z"/>
<path d="M4468 7673 c7 -3 16 -2 19 1 4 3 -2 6 -13 5 -11 0 -14 -3 -6 -6z"/>
<path d="M4690 7570 c-63 -7 -138 -22 -285 -60 -38 -10 -92 -21 -118 -25 -35
-5 -47 -10 -45 -22 2 -11 -20 -24 -77 -46 -105 -40 -188 -76 -247 -107 -56
-30 -238 -171 -238 -185 0 -5 -22 -25 -48 -42 -58 -39 -118 -101 -87 -88 11 4
49 19 84 32 35 13 88 35 118 48 29 14 55 25 57 25 18 0 258 125 339 176 190
121 295 163 607 242 63 17 131 37 150 45 35 15 34 15 -55 15 -49 -1 -119 -4
-155 -8z"/>
<path d="M3885 7520 c-69 -55 -85 -96 -26 -66 47 25 48 19 6 -24 -45 -46 -39
-50 22 -15 42 25 43 27 43 80 0 30 -2 55 -4 55 -2 0 -20 -14 -41 -30z"/>
<path d="M7612 7400 l3 -25 310 1 c171 0 393 2 495 3 102 1 240 -2 308 -5 82
-5 122 -3 122 4 0 32 -239 46 -813 47 l-428 0 3 -25z"/>
<path d="M5324 7343 c8 -19 -19 -23 -152 -23 -131 0 -217 -15 -487 -86 -49
-13 -106 -27 -125 -30 -86 -15 -139 -35 -145 -56 -11 -31 9 -44 48 -31 52 19
186 50 267 63 41 6 98 16 125 21 28 6 109 12 180 15 72 3 165 12 209 20 102
18 231 18 359 -1 56 -9 111 -14 122 -11 48 12 221 -25 385 -83 113 -40 257
-81 283 -81 16 0 14 4 -14 23 -24 16 -33 29 -31 44 2 16 -8 28 -40 47 -24 13
-56 28 -73 32 -16 4 -35 11 -41 15 -6 5 -33 12 -60 15 -27 4 -53 10 -59 14 -5
5 -50 16 -100 25 -49 10 -117 23 -149 31 -50 11 -61 11 -70 0 -9 -12 -22 -11
-86 5 -75 20 -98 23 -263 37 -65 5 -86 4 -83 -5z"/>
<path d="M4330 7149 c-59 -9 -135 -35 -135 -45 -1 -21 -18 -32 -72 -48 -84
-25 -194 -72 -308 -133 l-100 -54 60 7 60 6 -28 -22 c-15 -12 -26 -24 -24 -27
4 -4 27 9 132 74 36 22 110 57 125 58 9 1 31 9 50 18 19 8 53 21 75 27 41 13
135 50 193 76 26 12 32 20 29 39 -4 32 -5 32 -57 24z"/>
<path d="M6486 7123 c27 -21 55 -43 62 -50 33 -32 100 -83 109 -83 6 0 13 6
16 14 4 10 32 1 118 -42 l113 -56 118 -1 c65 -1 113 2 106 7 -7 4 -19 8 -26 8
-20 0 -132 46 -262 107 -63 30 -133 62 -155 71 -22 8 -50 22 -63 30 -19 12
-27 13 -46 3 -20 -11 -30 -10 -64 8 -66 34 -80 25 -26 -16z"/>
<path d="M3400 7005 c-7 -9 -11 -18 -8 -20 3 -3 11 1 18 10 7 9 11 18 8 20 -3
3 -11 -1 -18 -10z"/>
<path d="M4810 6966 c-270 -50 -381 -78 -535 -131 -88 -31 -176 -61 -195 -66
-19 -6 -48 -16 -65 -24 -34 -15 -93 -31 -85 -22 3 3 32 22 65 41 69 42 53 46
-41 11 -77 -29 -114 -51 -201 -117 -34 -27 -65 -48 -68 -48 -17 0 -90 -71
-141 -137 -33 -42 -70 -89 -84 -106 -43 -52 -90 -136 -104 -187 l-7 -25 21 25
c12 14 29 34 38 45 116 138 159 185 169 185 6 0 55 30 110 66 118 79 183 113
283 147 89 30 267 85 400 122 52 15 138 42 190 60 52 18 137 43 188 55 74 18
90 25 82 36 -9 10 -3 15 28 24 67 18 190 30 237 23 55 -7 60 9 8 25 -78 22
-164 21 -293 -2z"/>
<path d="M7615 6960 c3 -6 20 -17 37 -26 74 -38 -35 -33 -240 11 -40 9 -92 15
-115 13 l-42 -3 75 -28 c41 -15 89 -35 105 -43 76 -37 195 -65 310 -74 66 -5
134 -14 152 -19 17 -5 65 -12 107 -16 74 -7 76 -7 85 17 7 19 27 31 90 52 80
27 82 27 305 24 242 -4 251 -2 163 43 -32 17 -70 22 -220 29 -100 5 -189 11
-197 13 -8 3 -49 8 -90 11 l-75 6 35 -20 c19 -10 28 -20 20 -20 -8 -1 -24 -3
-35 -6 -11 -2 -74 -5 -140 -5 -99 -1 -138 4 -222 25 -115 29 -116 30 -108 16z"/>
<path d="M6595 6735 l30 -13 -30 -3 c-16 -1 -42 -2 -57 -1 -47 3 -31 -13 25
-26 28 -6 62 -14 75 -18 19 -5 22 -3 22 20 0 14 6 26 13 26 25 -1 154 -39 202
-60 28 -12 68 -31 90 -41 23 -9 115 -47 205 -83 172 -68 250 -89 250 -66 0 8
9 10 23 7 167 -37 359 -58 370 -40 4 6 -30 17 -84 28 -50 9 -159 39 -242 67
-111 36 -178 52 -247 58 -97 9 -216 41 -304 80 -68 31 -269 80 -325 80 l-46
-1 30 -14z"/>
<path d="M5341 6721 c-10 -6 -3 -12 25 -21 104 -33 49 -36 -216 -9 -63 6 -214
11 -335 11 -181 0 -228 -3 -265 -16 -25 -10 -68 -25 -95 -35 -28 -10 -120 -53
-205 -96 -223 -111 -353 -159 -244 -88 35 23 -46 3 -111 -27 -62 -28 -192
-126 -283 -214 -49 -47 -52 -54 -47 -86 4 -26 -3 -62 -24 -127 -17 -50 -31
-96 -31 -103 0 -22 18 0 43 52 25 54 141 181 227 249 72 58 260 184 318 213
120 61 303 119 442 142 52 8 111 19 130 24 19 4 116 11 215 14 99 3 181 6 183
6 2 0 0 5 -3 10 -4 6 6 10 22 10 30 0 211 -15 301 -26 l53 -6 -3 64 -3 63 -40
3 c-22 1 -46 -2 -54 -7z"/>
<path d="M5479 6678 c0 -18 -2 -41 -4 -50 -2 -9 2 -21 8 -26 20 -16 167 -32
191 -21 13 6 51 6 98 1 43 -4 83 -5 88 -2 25 15 -155 87 -290 115 -93 20 -90
20 -91 -17z"/>
<path d="M5780 6681 c0 -16 99 -61 134 -61 42 0 48 17 9 26 -16 3 -39 10 -53
15 -51 19 -90 27 -90 20z"/>
<path d="M6048 6602 c-21 -2 -38 -7 -38 -12 0 -15 109 -24 137 -11 14 7 24 13
22 15 -7 6 -84 11 -121 8z"/>
<path d="M7550 6597 c0 -17 101 -60 158 -68 37 -6 84 -17 106 -25 21 -8 41
-13 43 -10 6 6 -127 69 -177 84 -42 12 -130 25 -130 19z"/>
<path d="M8010 6451 c0 -20 34 -34 97 -38 78 -6 76 5 -6 30 -59 19 -91 22 -91
8z"/>
<path d="M3284 6387 c-39 -34 -85 -78 -101 -97 -35 -41 -76 -111 -69 -117 5
-5 60 22 99 49 15 11 27 28 27 39 0 11 6 22 14 25 20 8 116 131 116 149 0 23
-10 18 -86 -48z"/>
<path d="M5525 6370 c170 -35 321 -75 601 -156 152 -45 186 -41 89 8 -110 56
-351 132 -495 157 -89 15 -261 31 -324 30 -41 -1 -16 -8 129 -39z"/>
<path d="M4213 6305 c-152 -39 -163 -43 -210 -96 -19 -21 -42 -39 -49 -39 -8
0 -14 -6 -14 -13 0 -17 -39 -54 -128 -120 -40 -29 -84 -69 -98 -88 -20 -26
-90 -161 -121 -234 -10 -23 137 136 186 200 64 86 153 158 135 110 -10 -25 11
-17 57 23 48 42 68 55 277 192 78 51 142 95 142 97 0 9 -57 -2 -177 -32z"/>
<path d="M6220 6273 c0 -7 178 -129 256 -176 16 -9 43 -26 59 -36 17 -11 43
-23 59 -27 25 -6 28 -4 23 10 -5 14 -3 15 13 6 27 -14 34 -12 20 5 -7 9 -10
25 -6 41 4 15 2 32 -5 40 -22 27 3 14 72 -36 77 -56 96 -62 77 -26 -17 32
-134 124 -217 171 -64 36 -96 39 -53 5 40 -33 20 -56 -23 -27 -11 8 -30 16
-42 19 -17 5 -13 -2 18 -32 21 -20 39 -42 39 -48 0 -15 -26 -16 -35 -2 -6 10
-44 29 -179 89 -76 34 -76 34 -76 24z"/>
<path d="M8313 6154 c-85 -66 -272 -124 -403 -124 -49 0 -92 -5 -95 -10 -8
-12 31 -28 88 -36 80 -10 91 -14 78 -27 -22 -22 -10 -29 42 -22 82 11 168 51
230 106 85 75 137 173 60 113z"/>
<path d="M4240 5933 c-58 -10 -99 -29 -175 -81 -129 -89 -141 -99 -193 -175
-90 -130 -140 -254 -150 -365 -5 -61 -6 -64 -29 -59 -35 6 -39 -16 -13 -60 14
-23 18 -39 11 -41 -6 -2 -11 -19 -11 -38 0 -29 -3 -34 -24 -34 -17 0 -27 7
-31 23 -20 75 -25 97 -33 142 l-9 50 -26 -55 c-15 -30 -31 -55 -37 -55 -16 0
-70 -133 -70 -170 1 -54 25 -137 45 -151 10 -8 33 -14 50 -14 17 0 35 -4 41
-9 10 -10 54 4 54 18 0 5 9 11 19 14 16 4 19 13 19 51 -1 54 5 64 27 42 25
-25 71 -21 79 7 7 27 68 70 122 87 21 6 52 16 67 20 16 5 35 6 43 3 9 -3 14 2
14 16 0 23 26 40 55 38 14 -1 21 5 23 22 3 19 8 22 30 18 37 -7 62 9 62 38 0
20 5 25 25 25 27 0 99 33 109 49 4 5 23 15 44 21 20 7 66 23 101 37 61 24 70
24 204 18 88 -4 153 -11 176 -21 20 -8 52 -19 71 -24 19 -4 66 -18 105 -29
163 -49 332 -70 503 -62 44 2 40 19 -8 39 -22 9 -38 21 -37 27 2 5 35 15 73
21 93 17 94 17 101 -3 14 -39 35 -53 84 -53 28 0 53 6 62 15 8 8 33 24 56 35
37 20 42 20 57 6 8 -9 20 -16 27 -16 6 0 32 -22 57 -48 l46 -48 87 2 c68 1 92
5 107 19 24 22 25 18 5 -28 -8 -20 -15 -43 -15 -51 0 -25 30 -46 66 -46 41 0
68 12 107 48 25 24 27 31 27 104 0 56 5 86 16 104 17 25 15 70 -7 177 -13 56
-29 62 -29 10 -1 -66 -17 -112 -65 -184 -47 -69 -74 -98 -62 -66 29 76 30 117
5 180 -15 39 -48 37 -48 -3 0 -34 -15 -40 -25 -11 -12 38 -69 94 -64 64 6 -39
-1 -42 -38 -18 -40 28 -50 27 -34 -3 13 -25 14 -72 2 -91 -7 -10 -10 -8 -16
10 -19 63 -115 147 -154 134 -15 -5 -31 4 -60 32 -61 59 -71 65 -89 57 -9 -4
-21 -6 -26 -5 -48 11 -183 24 -229 22 -34 -1 -57 2 -53 7 3 5 -33 11 -83 14
-105 6 -119 12 -95 39 9 11 15 21 13 23 -2 2 -46 -4 -97 -12 -51 -8 -95 -12
-99 -9 -3 4 4 19 18 33 l24 27 -47 -6 c-50 -7 -54 -4 -50 46 2 21 -6 21 -93
-2 -70 -18 -70 -18 -135 5 -36 12 -83 30 -105 40 -42 17 -114 37 -179 49 -33
5 -38 4 -33 -9 8 -19 -16 -21 -93 -6 -36 7 -65 6 -95 -1 -54 -14 -81 -7 -42
11 49 23 33 34 -33 23z"/>
<path d="M8308 5913 c-8 -10 -20 -34 -27 -53 -6 -19 -29 -53 -51 -75 -28 -29
-41 -52 -46 -82 -8 -52 3 -55 34 -8 12 19 39 46 60 59 22 13 47 40 56 60 10
21 26 38 40 42 26 6 83 60 74 70 -3 3 -25 0 -49 -6 -31 -9 -44 -9 -47 -1 -5
16 -27 13 -44 -6z"/>
<path d="M7815 5820 c-3 -6 2 -13 12 -17 28 -10 171 -144 176 -165 8 -31 26
-20 37 23 15 54 1 88 -53 134 -37 32 -46 35 -103 35 -35 0 -66 -5 -69 -10z"/>
<path d="M3755 5717 c-16 -23 -46 -60 -66 -82 -42 -47 -52 -68 -36 -84 20 -20
55 -12 80 19 35 41 68 131 59 163 -7 25 -7 25 -37 -16z"/>
<path d="M8117 5271 c-26 -31 -52 -100 -41 -110 8 -8 52 51 64 87 17 49 7 59
-23 23z"/>
<path d="M6478 5115 c-24 -21 -100 -164 -92 -173 1 -2 13 2 27 10 69 38 105
70 130 116 33 60 35 77 8 62 -13 -7 -22 -7 -26 0 -9 15 -17 12 -47 -15z"/>
<path d="M10943 5123 c-17 -6 -16 -38 1 -52 11 -9 19 -9 35 1 24 15 26 29 9
46 -13 13 -24 14 -45 5z"/>
<path d="M6529 5000 c-17 -28 -40 -57 -52 -65 l-21 -15 22 0 c47 0 102 59 102
110 0 34 -18 23 -51 -30z"/>
<path d="M4010 4961 c-55 -17 -119 -57 -207 -128 -138 -112 -159 -133 -143
-143 12 -7 11 -12 -3 -28 -9 -10 -17 -21 -17 -25 0 -11 73 23 135 63 33 21 73
42 89 46 16 4 60 24 96 46 37 21 72 38 78 38 6 0 18 11 27 24 9 13 45 36 80
51 64 27 81 47 49 59 -22 8 -153 6 -184 -3z"/>
<path d="M44 4910 c-12 -5 -25 -21 -28 -36 -6 -22 -2 -32 18 -51 35 -32 61
-30 76 7 10 24 10 36 0 60 -13 31 -28 35 -66 20z"/>
<path d="M3231 4823 c-31 -35 -32 -39 -20 -62 17 -29 70 -44 94 -27 9 6 18 27
21 47 5 29 2 41 -15 58 -29 29 -42 27 -80 -16z"/>
<path d="M5660 4832 c0 -16 36 -42 58 -42 27 0 28 11 4 33 -19 18 -62 23 -62
9z"/>
<path d="M4365 4802 c-42 -10 -35 -25 17 -36 97 -21 193 -7 162 24 -13 13
-138 21 -179 12z"/>
<path d="M4155 4785 c-69 -15 -201 -76 -293 -135 -46 -29 -67 -38 -76 -31 -19
16 -75 -28 -133 -101 -46 -59 -84 -141 -71 -154 13 -13 118 50 143 85 36 53
145 131 240 174 71 32 275 152 280 164 5 16 -11 15 -90 -2z"/>
<path d="M6424 4791 c-2 -2 1 -10 8 -18 8 -10 8 -17 0 -25 -19 -19 -14 -23 27
-24 38 -1 38 -1 38 37 0 36 -1 37 -34 36 -19 -1 -36 -4 -39 -6z"/>
<path d="M4960 4781 c0 -4 18 -22 41 -40 22 -18 38 -35 36 -37 -2 -3 -40 7
-83 21 -141 47 -289 68 -323 46 -7 -5 -11 -13 -7 -19 7 -11 84 -32 121 -32 15
0 66 -19 114 -42 l86 -43 -70 -3 c-38 -2 -74 -7 -79 -13 -6 -6 -4 -9 7 -9 9 0
17 -4 17 -10 0 -6 -26 -10 -58 -10 -33 0 -85 -9 -118 -20 -72 -24 -74 -24 -74
-4 0 11 -5 14 -17 10 -25 -10 -156 -26 -165 -20 -4 3 -25 -4 -47 -16 -22 -11
-47 -20 -56 -20 -31 0 -239 -120 -326 -188 -14 -11 -51 -25 -84 -31 -32 -6
-61 -14 -64 -17 -3 -3 4 -14 17 -24 12 -10 22 -20 22 -23 0 -2 -18 -12 -41
-22 -37 -17 -43 -17 -89 -3 -27 9 -51 13 -54 11 -6 -7 30 -81 53 -107 15 -18
15 -18 -14 -13 -16 3 -42 9 -57 13 -24 5 -28 3 -28 -14 0 -12 14 -37 31 -57
l31 -35 -39 0 c-22 0 -61 11 -86 24 -71 35 -78 -5 -12 -63 19 -17 35 -33 35
-37 0 -11 -88 4 -120 21 -23 12 -30 13 -30 3 0 -27 50 -85 88 -102 l40 -18
-31 -29 c-16 -16 -48 -34 -71 -40 -23 -6 -50 -16 -61 -22 -19 -10 -19 -10 0
-18 11 -4 49 -8 84 -8 76 -1 74 -7 -24 -72 -36 -23 -63 -44 -61 -47 3 -2 46 2
96 8 50 7 92 11 95 9 2 -3 -21 -33 -51 -67 -31 -34 -49 -62 -41 -62 7 0 40 9
72 20 l59 20 26 -25 27 -26 30 25 c38 32 76 42 92 23 10 -12 5 -20 -25 -45
-40 -33 -34 -44 24 -42 55 3 55 3 33 -34 -20 -32 -27 -67 -15 -78 3 -3 32 2
65 12 l60 18 17 -36 c22 -46 35 -49 52 -15 l13 28 13 -32 c9 -22 21 -33 34
-33 12 0 31 -7 43 -15 12 -8 42 -15 66 -17 40 -3 45 -1 53 25 9 25 6 32 -28
64 -36 34 -37 36 -19 49 10 8 28 14 40 14 30 0 34 6 25 46 -6 26 -5 34 6 34 8
0 17 7 20 15 9 23 25 18 73 -20 24 -19 52 -35 62 -35 10 0 21 -4 24 -10 7 -12
55 -14 55 -2 0 4 -23 32 -51 62 -62 68 -100 133 -134 231 -32 93 -28 108 52
177 59 51 221 142 254 142 24 0 13 -37 -17 -56 -12 -9 -26 -30 -29 -47 -4 -18
-15 -45 -25 -62 -22 -37 -44 -193 -35 -249 8 -47 67 -180 93 -209 40 -46 91
-57 279 -63 151 -5 198 -3 313 15 149 23 206 37 215 51 4 6 -5 10 -19 10 -14
0 -28 5 -31 10 -3 6 -26 10 -51 10 -41 0 -44 2 -34 19 5 11 17 26 25 34 26 27
73 139 95 230 22 87 22 90 4 158 -10 38 -14 72 -10 76 4 4 50 -14 103 -41 70
-34 93 -50 82 -56 -11 -7 -7 -16 20 -44 18 -19 31 -38 28 -43 -3 -5 21 -40 54
-78 32 -38 59 -78 59 -89 -1 -12 -14 -37 -30 -56 -17 -19 -30 -40 -30 -48 0
-13 -93 -62 -117 -62 -7 0 -13 -5 -13 -11 0 -6 26 -10 70 -8 40 1 75 -2 81 -8
7 -7 22 -8 42 -2 46 13 52 11 33 -10 -17 -19 -17 -20 15 -36 24 -13 47 -16 87
-12 59 6 92 28 92 62 0 30 -19 45 -57 45 -26 0 -33 4 -33 19 0 11 9 26 21 35
27 19 79 3 79 -24 0 -28 19 -34 40 -15 21 19 35 14 43 -15 4 -15 -4 -30 -25
-51 -33 -31 -26 -35 29 -20 19 6 35 5 40 0 24 -24 123 54 123 97 0 14 -12 36
-26 51 -22 22 -27 23 -37 10 -21 -25 -42 -26 -66 -1 -13 13 -27 24 -32 24 -5
0 -16 15 -25 32 -25 48 -264 278 -288 278 -12 0 -44 17 -71 38 -77 58 -127 88
-183 112 -28 12 -57 28 -63 36 -6 8 -24 14 -40 14 -15 0 -31 5 -34 10 -4 6
-32 27 -63 47 -63 40 -152 67 -282 84 -151 21 -256 13 -435 -32 -22 -6 -53
-13 -70 -15 -16 -3 -50 -15 -74 -25 -80 -37 -141 -59 -141 -51 0 4 16 18 35
32 41 30 44 40 10 40 -14 0 -25 3 -25 8 0 8 65 50 126 80 23 12 44 28 47 36 3
8 21 17 39 21 18 3 51 15 73 25 120 55 158 64 265 64 90 1 111 -2 147 -22 23
-12 49 -22 58 -22 8 0 52 -17 98 -39 45 -21 112 -49 150 -62 37 -12 67 -28 67
-34 0 -15 39 -36 144 -79 147 -61 185 -84 346 -209 85 -66 162 -121 172 -122
9 -1 39 -21 65 -46 85 -78 137 -120 189 -155 97 -64 177 -155 155 -177 -16
-16 -14 -27 5 -27 11 0 14 -6 9 -20 -5 -15 -2 -20 13 -20 44 0 80 21 96 58 15
35 15 36 12 7 -2 -16 -11 -59 -20 -94 -9 -35 -15 -69 -13 -75 5 -14 56 66 83
129 11 28 34 70 50 95 l29 45 3 -30 c1 -16 -1 -65 -6 -107 -4 -43 -7 -78 -5
-78 2 0 22 39 44 86 22 47 43 83 46 81 2 -3 7 -34 10 -69 5 -69 9 -80 24 -58
13 21 25 70 43 175 31 176 30 198 -14 377 -14 56 -121 272 -151 304 -20 21
-21 31 -15 93 3 38 3 82 0 98 l-6 29 -28 -26 c-15 -14 -31 -40 -35 -59 -5 -23
-11 -31 -22 -27 -8 3 -17 6 -19 6 -2 0 -4 7 -4 15 0 8 -34 55 -75 104 -104
125 -153 150 -99 51 l28 -52 -23 -19 c-13 -11 -29 -19 -37 -19 -16 0 -69 31
-143 82 -33 23 -58 35 -64 29 -6 -6 -29 1 -59 16 -27 14 -52 22 -55 19 -6 -6
32 -70 56 -94 30 -31 87 -107 94 -126 7 -18 6 -18 -19 -1 -14 9 -28 15 -30 12
-3 -2 11 -28 31 -57 56 -83 43 -90 -33 -19 -94 90 -130 120 -184 157 -26 18
-68 53 -94 78 -25 25 -60 52 -77 60 -18 8 -53 28 -79 44 -56 34 -268 120 -298
120 -11 0 -20 -3 -20 -8 0 -4 34 -34 76 -66 41 -33 77 -64 80 -68 3 -5 -25 6
-63 25 -37 19 -115 49 -173 66 -58 18 -114 37 -125 41 -19 9 -133 42 -202 60
-18 4 -33 5 -33 1z m-136 -791 c-1 -14 4 -28 10 -33 17 -11 -24 -38 -53 -35
-13 2 -29 11 -35 20 -8 14 -5 23 19 48 34 36 61 36 59 0z m81 -110 c0 -8 -8
-16 -17 -18 -13 -2 -18 3 -18 18 0 15 5 20 18 18 9 -2 17 -10 17 -18z m373
-90 c13 0 12 -3 -4 -14 -20 -15 -16 -19 31 -29 15 -3 13 -6 -12 -12 -38 -9
-42 -22 -10 -35 16 -6 17 -9 5 -9 -23 -1 -32 -19 -18 -36 10 -12 9 -15 -3 -15
-23 0 -30 -16 -31 -77 -2 -59 -15 -76 -53 -66 -20 4 -23 1 -23 -26 0 -35 -14
-45 -80 -56 -70 -12 -152 -7 -172 12 -13 11 -27 14 -54 9 -29 -6 -41 -3 -59
14 -14 14 -25 18 -29 11 -5 -7 -22 -1 -47 16 -37 24 -40 29 -34 60 4 25 2 35
-10 39 -15 6 -22 44 -7 44 4 0 17 3 30 6 18 5 22 2 22 -15 0 -12 6 -21 15 -21
8 0 15 -3 15 -7 0 -10 49 -33 69 -33 9 0 30 -9 48 -19 19 -12 40 -17 53 -14
15 4 26 0 32 -11 12 -22 28 -20 28 2 0 32 13 34 36 5 l22 -28 7 28 c7 25 10
27 40 21 32 -6 34 -5 37 27 2 24 9 35 23 38 27 5 36 21 29 54 -5 22 -2 27 15
27 14 0 19 6 19 23 -1 12 -5 27 -10 34 -6 7 -3 15 9 22 10 6 12 11 6 11 -7 0
-13 4 -13 9 0 11 30 20 48 15 8 -2 21 -4 30 -4z m-622 -155 c-20 -18 -34 -23
-52 -19 -13 3 -24 9 -24 14 0 11 43 29 74 29 l29 1 -27 -25z"/>
<path d="M4680 3599 c0 -5 5 -7 10 -4 6 3 10 8 10 11 0 2 -4 4 -10 4 -5 0 -10
-5 -10 -11z"/>
<path d="M5824 4726 c-8 -22 13 -54 47 -71 55 -29 68 9 18 56 -34 32 -57 37
-65 15z"/>
<path d="M3136 4668 c-17 -23 -22 -83 -8 -92 8 -5 72 20 72 28 0 15 -33 86
-41 86 -4 0 -15 -10 -23 -22z"/>
<path d="M8890 4660 c-14 -4 -52 -16 -85 -26 -33 -9 -78 -25 -100 -35 -59 -27
-67 -25 -50 15 20 49 3 55 -42 16 -20 -18 -50 -38 -67 -45 -17 -7 -42 -22 -56
-32 -41 -31 -96 -60 -126 -67 -62 -14 -224 -112 -306 -185 -45 -41 -84 -69
-86 -63 -2 6 12 32 31 59 103 146 7 88 -140 -85 -32 -37 -73 -91 -92 -118 -37
-54 -51 -48 -26 12 18 43 10 57 -31 52 -19 -2 -30 -10 -32 -22 -2 -10 -18 -42
-36 -69 -17 -28 -42 -78 -56 -111 -23 -55 -28 -61 -57 -64 -38 -4 -35 5 -63
-224 -28 -235 -26 -272 13 -215 16 21 16 21 16 -23 1 -43 -9 -123 -24 -203 -7
-35 -6 -39 11 -35 11 2 33 29 52 63 l33 60 -5 -115 c-3 -63 -6 -158 -7 -210
l-1 -95 -13 50 c-7 28 -14 70 -14 95 -1 31 -4 41 -12 33 -12 -12 -24 -187 -33
-463 -4 -96 -9 -224 -12 -284 -5 -89 -4 -111 8 -120 11 -8 16 -46 21 -152 4
-77 11 -152 15 -165 9 -22 10 -21 16 16 5 35 26 288 26 323 0 6 4 12 8 12 13
0 32 -72 32 -122 0 -24 6 -91 14 -149 19 -134 23 -342 12 -597 -6 -134 -6
-202 1 -202 9 0 17 29 43 164 7 32 15 54 19 50 19 -21 46 -195 46 -294 0 -151
-19 -210 -105 -329 -38 -53 -81 -107 -95 -120 -26 -24 -32 -41 -15 -41 17 0
11 -18 -7 -24 -10 -4 -35 -22 -55 -40 -28 -25 -60 -40 -120 -56 -46 -12 -89
-25 -97 -30 -23 -12 64 -40 127 -40 l57 0 -52 -35 c-29 -19 -55 -35 -59 -35
-4 0 -15 -6 -23 -14 -24 -20 -105 -43 -201 -56 -47 -7 -89 -15 -95 -18 -16
-10 -66 -2 -107 16 -44 20 -50 35 -10 27 34 -6 95 13 86 27 -5 7 8 9 39 4 41
-6 49 -4 77 21 l32 28 -20 26 -20 25 34 23 c19 13 35 31 35 40 2 26 -2 46 -12
52 -12 7 -234 3 -247 -5 -13 -8 -4 -46 11 -46 6 0 23 -11 37 -25 15 -14 46
-29 71 -34 43 -9 38 -11 -31 -14 -30 -2 -35 -6 -38 -30 -4 -36 -20 -34 -75 8
-25 19 -51 35 -57 35 -6 0 -35 19 -63 42 -29 24 -54 44 -56 45 -2 2 -1 6 2 9
4 4 12 2 19 -4 9 -7 18 -7 31 2 9 7 17 16 17 18 0 3 -24 16 -52 28 -110 46
-233 129 -319 212 -87 85 -126 144 -148 226 -11 40 -32 55 -46 32 -11 -18 -14
-98 -5 -130 7 -25 3 -38 -23 -79 -60 -93 -149 -78 -240 40 -71 93 -88 163 -76
309 4 47 8 102 8 124 1 34 -1 37 -15 25 -22 -18 -57 -75 -76 -124 -12 -30 -13
-44 -5 -57 9 -13 7 -24 -11 -48 -23 -30 -23 -31 -7 -113 26 -140 27 -147 20
-147 -3 0 -10 10 -15 23 -7 19 -9 16 -9 -19 -1 -22 10 -69 24 -104 14 -35 25
-74 25 -86 0 -13 5 -26 10 -29 6 -3 10 -13 10 -22 0 -20 76 -180 90 -188 6 -3
10 -14 10 -23 0 -16 86 -100 114 -112 26 -11 142 -100 156 -119 8 -12 20 -21
27 -21 7 0 10 -7 7 -15 -4 -10 0 -15 12 -15 11 0 45 -25 77 -55 l59 -55 1147
0 1147 0 13 45 c14 48 9 169 -9 190 -5 6 -12 31 -14 56 -3 24 -7 53 -10 64 -2
11 -9 42 -16 69 -11 50 -41 101 -72 124 -17 12 -17 15 -2 50 25 57 34 281 13
347 -23 72 -103 228 -140 269 -33 38 -97 82 -106 73 -3 -4 1 -23 10 -45 14
-35 14 -39 -1 -49 -15 -9 -15 -15 -4 -45 6 -19 12 -43 12 -54 -1 -16 -4 -15
-23 8 -31 38 -40 35 -33 -9 4 -21 7 -56 9 -78 2 -37 4 -40 35 -43 39 -4 42
-19 5 -24 -23 -2 -29 -10 -40 -48 -7 -25 -20 -60 -29 -77 -14 -31 -18 -33 -69
-33 -50 0 -55 -2 -85 -40 -18 -23 -37 -39 -42 -38 -5 2 -25 41 -44 88 -34 79
-36 92 -35 185 2 149 31 217 128 310 57 56 71 73 61 83 -7 7 -20 12 -29 12
-30 0 -50 12 -41 24 5 6 26 53 46 105 56 142 69 306 31 380 -12 24 -12 24 -19
-13 -15 -79 -62 -206 -77 -206 -4 0 -10 -8 -13 -18 -3 -9 -3 6 1 33 5 48 5 85
-2 285 -2 52 -15 151 -28 220 -14 69 -28 145 -32 169 l-7 43 30 -22 c17 -13
33 -29 36 -37 6 -14 36 -18 36 -5 0 5 -25 49 -56 98 -66 104 -106 182 -102
195 2 4 36 -21 76 -57 40 -37 75 -64 78 -61 3 3 -15 36 -40 75 -44 70 -128
236 -141 281 -10 34 10 19 42 -31 29 -48 54 -69 147 -132 52 -35 78 -46 107
-46 33 0 39 3 39 20 0 31 -67 97 -129 128 -39 19 -64 41 -88 76 -18 26 -33 52
-33 58 0 5 27 -10 60 -33 33 -23 63 -39 66 -36 4 3 -19 34 -49 69 -63 71 -167
224 -167 245 0 19 8 16 42 -12 26 -22 48 -32 48 -21 0 2 -11 34 -25 71 l-26
68 33 28 c40 35 48 35 48 6 0 -14 12 -32 30 -45 20 -15 31 -34 35 -59 6 -39
33 -108 39 -102 2 2 22 56 44 119 22 63 50 142 62 175 19 54 55 103 67 91 3
-3 -4 -22 -15 -43 -28 -52 -68 -156 -85 -225 -17 -65 -16 -68 52 -114 29 -19
46 -25 48 -17 2 7 10 10 16 8 7 -2 25 -6 41 -10 25 -5 28 -4 23 14 -7 28 -2
27 103 -14 104 -41 110 -42 103 -15 -5 18 0 20 47 20 44 0 51 3 46 16 -5 14
-1 16 34 10 24 -4 40 -2 40 4 0 20 -72 89 -104 100 -18 6 -45 23 -59 39 -14
16 -31 31 -39 34 -8 4 11 29 57 74 39 38 87 87 107 110 55 60 111 104 181 142
72 39 179 81 206 81 18 0 16 -6 -13 -54 -49 -81 -70 -158 -71 -251 0 -57 5
-90 18 -114 9 -19 17 -44 17 -55 0 -12 11 -38 25 -58 14 -20 25 -39 25 -42 0
-3 -14 -4 -32 -2 -18 2 -41 1 -52 -3 -15 -6 -9 -11 32 -24 28 -9 58 -17 67
-17 8 0 44 -9 78 -21 147 -50 317 -55 491 -15 75 18 156 52 156 66 0 6 -24 10
-55 10 -30 0 -55 3 -55 6 0 3 11 20 24 37 34 47 46 91 46 174 0 67 -22 173
-50 238 -5 11 -11 30 -15 41 -3 12 -27 42 -52 68 -38 37 -43 46 -27 46 22 0
121 -32 169 -55 17 -8 53 -24 80 -36 34 -15 44 -23 33 -26 -18 -4 -25 -23 -10
-23 13 0 146 -125 177 -166 25 -32 26 -36 10 -48 -15 -11 -15 -13 4 -30 27
-25 27 -28 -9 -49 -16 -10 -30 -26 -30 -35 -1 -9 -28 -37 -61 -62 -56 -42 -59
-45 -35 -48 30 -4 34 -17 9 -26 -14 -6 -15 -9 -3 -16 7 -5 15 -16 16 -24 3
-18 -24 -32 -146 -75 -56 -20 -74 -31 -72 -43 2 -15 -20 -16 -260 -12 -145 2
-274 6 -288 9 -14 3 -73 9 -131 14 -74 6 -122 16 -155 31 -51 24 -137 35 -131
17 1 -5 31 -27 64 -47 54 -33 128 -60 228 -86 26 -7 23 -9 -30 -14 l-60 -5 55
-21 c30 -12 107 -32 170 -45 106 -22 139 -24 412 -24 290 0 297 -1 275 -18
-22 -18 -22 -18 31 -14 28 2 52 0 52 -4 0 -9 -74 -59 -87 -59 -4 0 -25 -12
-47 -27 -23 -15 -43 -28 -44 -29 -2 -2 -1 -12 3 -23 4 -14 15 -21 33 -21 15 0
33 -4 41 -9 11 -7 7 -12 -15 -24 -50 -25 -130 -48 -193 -55 -63 -7 -81 -23
-39 -32 12 -3 18 -9 13 -12 -13 -8 -171 19 -194 32 -13 8 -11 9 12 10 41 0 32
18 -15 30 -74 18 -142 42 -169 61 -21 15 -110 45 -194 66 l-20 4 20 -15 c54
-43 87 -81 72 -84 -40 -8 -247 107 -302 168 -10 11 -23 20 -28 20 -6 0 -19 7
-29 17 -25 22 -30 13 -12 -21 8 -16 13 -30 11 -32 -2 -2 -41 19 -88 47 -127
76 -122 74 -114 50 10 -33 -10 -26 -78 27 -123 96 -237 165 -237 144 0 -18
110 -113 166 -145 33 -18 95 -63 138 -98 110 -91 148 -120 154 -114 3 2 -1 12
-9 21 -12 15 -11 16 11 9 36 -11 69 -31 118 -70 23 -19 59 -39 78 -44 20 -6
44 -17 53 -24 9 -8 41 -25 71 -38 30 -12 62 -28 70 -35 8 -6 44 -24 80 -39 36
-14 85 -37 110 -49 105 -53 209 -85 425 -131 61 -13 144 -32 185 -44 87 -24
82 -10 -15 38 -33 17 -58 31 -55 31 123 8 171 8 204 0 89 -19 106 -20 106 -5
0 12 8 14 40 9 26 -4 40 -3 40 4 0 6 17 14 38 17 86 14 201 37 257 51 33 9 78
18 100 20 47 6 55 12 35 25 -24 15 -80 28 -153 34 -72 7 -80 20 -19 30 160 25
145 62 -27 64 -133 1 -155 12 -67 36 86 24 86 44 -2 46 -46 1 -84 14 -62 22
37 13 107 28 115 26 19 -5 115 13 121 23 3 5 -13 28 -37 51 -23 23 -37 43 -30
45 6 2 36 -6 66 -19 30 -12 58 -20 61 -16 4 4 -12 32 -35 62 -32 43 -38 55
-24 53 19 -3 19 -2 8 50 -4 19 -3 32 3 32 13 0 71 -66 84 -96 19 -40 28 -27
28 38 0 61 0 61 21 42 17 -15 22 -16 29 -4 13 22 20 8 23 -46 2 -41 5 -49 22
-49 11 0 28 3 37 7 18 8 83 101 105 148 9 20 36 137 44 196 1 5 4 -7 8 -26 3
-19 2 -73 -2 -118 -9 -88 -6 -102 17 -83 19 16 36 89 35 148 -1 58 -21 129
-37 126 -15 -3 -22 39 -21 137 0 47 -4 110 -9 140 -11 60 -7 73 31 108 l25 24
-15 -70 -16 -70 29 -46 c33 -51 41 -56 46 -23 2 16 13 2 42 -58 39 -80 71
-125 89 -125 5 0 6 8 2 18 -14 36 -38 220 -37 282 0 14 -5 31 -11 39 -6 7 -11
47 -11 87 l0 74 -41 1 c-37 0 -44 5 -102 75 -71 85 -89 137 -57 161 10 8 19
17 19 21 1 15 106 112 128 118 12 3 34 24 49 47 50 80 70 118 65 123 -5 5
-128 -58 -199 -103 -44 -27 -46 -27 -50 -9 -2 10 -25 5 -97 -22 l-95 -35 -20
27 c-12 15 -33 40 -48 54 -95 92 -127 122 -132 122 -6 0 -58 35 -107 73 -20
15 -41 27 -47 27 -6 0 -15 6 -19 13 -8 14 -94 36 -168 44 l-40 4 30 -29 c53
-50 115 -121 115 -131 0 -10 -30 -4 -40 8 -11 13 -119 62 -185 85 -38 13 -88
32 -110 41 l-40 17 24 19 c13 10 29 19 36 19 6 0 20 9 30 20 21 23 9 26 -41
11 -46 -15 -124 -22 -124 -11 0 5 12 21 28 36 l27 26 -25 -5 c-39 -9 -122 -37
-150 -52 -14 -7 -41 -16 -60 -20 -19 -4 -40 -11 -45 -16 -14 -10 -95 -24 -95
-16 0 4 14 13 30 22 33 17 40 35 13 35 -10 0 -45 -9 -79 -19 -74 -24 -301 -32
-313 -12 -6 9 -32 7 -112 -10 -134 -29 -164 -30 -162 -6 2 32 -52 18 -262 -65
-55 -22 -106 -45 -113 -51 -7 -5 -15 -8 -18 -5 -10 11 147 119 203 140 83 31
95 42 52 48 -33 5 -32 6 61 54 52 27 97 50 99 52 8 7 -94 2 -119 -6z m790
-675 c149 -33 205 -48 226 -62 11 -7 23 -11 26 -8 3 3 31 -8 62 -25 40 -23 60
-28 73 -22 20 10 41 5 61 -15 11 -11 11 -13 -2 -13 -8 0 -18 5 -21 10 -10 16
-38 12 -31 -5 8 -22 -13 -19 -73 10 -52 26 -111 42 -111 32 0 -3 23 -19 51
-37 28 -17 49 -33 46 -36 -2 -2 -48 11 -101 30 -287 104 -568 91 -915 -45 -94
-36 -125 -54 -172 -96 -61 -57 -85 -67 -74 -32 6 18 4 19 -12 11 -10 -6 -47
-35 -82 -66 -36 -31 -67 -54 -69 -51 -10 10 91 115 155 163 101 74 296 182
388 215 146 52 236 67 375 63 69 -2 159 -11 200 -21z m-412 -308 c9 -44 -60
-68 -71 -25 -4 12 -1 28 5 35 16 19 62 12 66 -10z m79 -83 c7 -20 -11 -38 -32
-30 -13 4 -14 10 -5 26 13 24 28 26 37 4z m390 -173 c3 -30 0 -63 -8 -87 -8
-22 -14 -43 -14 -49 -1 -5 -16 -27 -35 -47 -34 -35 -73 -50 -96 -36 -6 4 -25
-6 -42 -22 -17 -16 -34 -25 -37 -20 -6 9 -56 7 -74 -4 -7 -4 -28 0 -47 9 -20
9 -41 14 -48 12 -8 -3 -19 0 -25 6 -10 9 -16 7 -27 -7 -8 -11 -14 -14 -14 -8
0 7 -9 12 -20 12 -11 0 -20 5 -20 10 0 6 -9 10 -20 10 -22 0 -35 20 -60 98
-20 63 -26 140 -9 110 6 -10 17 -18 26 -18 10 0 13 -6 9 -16 -4 -10 3 -18 24
-26 17 -5 30 -16 30 -23 0 -7 7 -16 16 -19 12 -5 14 -13 9 -34 l-7 -27 26 24
c21 20 28 22 41 11 12 -10 19 -10 27 -2 16 16 28 15 28 -3 0 -17 16 -20 25 -5
3 5 12 7 20 3 9 -3 21 0 29 6 7 6 21 9 30 5 9 -3 16 -1 16 6 0 7 8 9 20 5 13
-4 33 2 55 15 34 21 47 16 23 -8 -9 -9 -7 -13 6 -18 20 -8 37 12 29 33 -3 9 3
13 19 13 31 0 41 10 27 27 -9 9 -8 17 0 27 10 12 8 17 -8 26 -28 14 -27 30 2
30 l22 1 -22 18 c-28 23 -28 27 -4 34 14 3 18 11 14 33 -5 27 -4 26 26 -14 21
-29 34 -59 38 -91z m140 -1127 c-3 -3 -12 -4 -19 -1 -8 3 -5 6 6 6 11 1 17 -2
13 -5z m-4089 -1492 c4 -25 -13 -30 -22 -6 -9 25 -7 36 7 32 6 -3 13 -14 15
-26z m967 -453 c4 -6 5 -12 2 -15 -7 -7 -37 7 -37 17 0 13 27 11 35 -2z m72
-45 c-3 -3 -12 -4 -19 -1 -8 3 -5 6 6 6 11 1 17 -2 13 -5z"/>
<path d="M2778 4598 c-56 -53 -148 -164 -148 -180 0 -20 23 -1 113 93 54 56
97 109 97 120 0 10 -1 19 -3 19 -2 0 -28 -24 -59 -52z"/>
<path d="M3523 4447 c-47 -36 -63 -64 -63 -108 0 -36 24 -48 50 -24 34 31 87
166 64 164 -5 0 -28 -15 -51 -32z"/>
<path d="M2757 4418 c-44 -51 -97 -124 -97 -133 0 -30 125 92 147 142 25 62 9
59 -50 -9z"/>
<path d="M7873 4428 c-5 -7 -15 -25 -23 -40 -7 -16 -17 -28 -20 -28 -6 0 -90
-116 -113 -157 -4 -7 5 -15 23 -22 31 -10 31 -9 77 61 43 66 83 156 83 185 0
17 -15 17 -27 1z"/>
<path d="M3402 4343 c-32 -31 -43 -73 -19 -73 18 0 59 66 55 87 -3 16 -8 14
-36 -14z"/>
<path d="M2550 4325 c-8 -9 -8 -15 -2 -15 12 0 26 19 19 26 -2 2 -10 -2 -17
-11z"/>
<path d="M7575 4318 c-10 -35 -58 -300 -62 -345 -4 -49 -3 -53 16 -53 14 0 25
9 32 26 12 34 37 384 26 384 -4 0 -9 -6 -12 -12z"/>
<path d="M3315 4269 c-11 -17 1 -21 15 -4 8 9 8 15 2 15 -6 0 -14 -5 -17 -11z"/>
<path d="M2748 4090 c-3 -30 -4 -91 -3 -134 3 -77 -2 -130 -26 -281 -7 -42
-29 -107 -55 -164 -24 -52 -44 -97 -44 -102 0 -4 -24 -41 -54 -83 -87 -121
-135 -297 -90 -331 11 -8 14 -14 7 -15 -27 0 -12 -56 35 -126 52 -79 83 -101
155 -110 46 -7 49 -5 87 35 41 43 49 68 28 89 -18 18 -50 14 -78 -8 -14 -11
-41 -20 -62 -20 -53 0 -87 33 -99 95 -17 87 3 158 67 240 17 22 33 48 37 58 4
9 18 22 32 27 27 10 94 75 122 117 16 24 16 26 -4 43 -16 13 -19 20 -10 29 18
18 18 93 -1 121 -14 21 -16 61 -18 265 -1 132 -6 256 -11 275 l-9 35 -6 -55z"/>
<path d="M7462 3978 c-16 -46 -34 -171 -30 -205 l4 -28 16 35 c9 19 19 62 23
95 3 33 8 77 11 98 7 46 -8 49 -24 5z"/>
<path d="M3243 3978 c-35 -25 -103 -110 -103 -129 0 -7 10 -9 30 -5 17 3 30 4
30 2 0 -2 -16 -23 -35 -46 -34 -41 -45 -70 -26 -70 6 0 3 -12 -5 -27 -29 -58
-11 -70 56 -37 25 12 51 32 57 45 20 40 24 67 13 74 -7 5 -4 18 10 41 11 20
20 38 20 41 0 3 -16 3 -35 1 -41 -5 -43 1 -12 39 26 32 57 80 57 88 0 12 -28
4 -57 -17z"/>
<path d="M7393 3878 c-7 -26 -13 -57 -13 -70 1 -22 1 -22 16 5 9 16 14 46 12
70 l-3 42 -12 -47z"/>
<path d="M3201 3624 c-30 -24 -59 -50 -63 -59 -11 -18 -2 -35 18 -35 20 0 17
-20 -7 -46 -26 -28 -17 -46 18 -38 l26 7 -26 -35 c-33 -43 -33 -48 -4 -40 21
5 21 4 5 -15 -10 -11 -18 -25 -18 -32 0 -18 54 13 74 43 15 23 15 26 1 26 -15
0 -15 2 -1 22 23 33 21 51 -6 42 -21 -6 -20 -4 5 15 32 26 35 51 7 51 -25 0
-25 2 6 51 14 22 24 51 22 63 -3 22 -6 21 -57 -20z"/>
<path d="M13464 3541 c-17 -10 -41 -22 -55 -26 -25 -8 -91 -54 -97 -68 -2 -4
-28 -23 -57 -41 -84 -54 -175 -165 -190 -231 -10 -43 -44 -160 -67 -229 -36
-105 -17 -176 52 -192 14 -3 39 -13 56 -21 60 -31 129 -5 311 114 65 42 139
143 105 143 -15 0 -68 -29 -137 -75 -75 -51 -122 -60 -110 -22 4 12 11 54 15
92 5 39 15 93 23 121 11 39 13 63 6 94 -11 46 5 91 46 132 12 13 30 37 39 55
9 18 25 37 36 43 11 6 20 18 20 27 0 9 11 36 25 60 29 48 25 52 -21 24z"/>
<path d="M13599 3480 c-24 -16 -51 -30 -59 -30 -24 -1 -67 -43 -74 -71 -9 -42
26 -79 74 -79 34 0 42 4 57 33 15 28 59 136 66 161 5 20 -22 14 -64 -14z"/>
<path d="M11442 3430 c3 -19 11 -56 18 -81 13 -46 13 -47 -18 -85 -52 -63 -41
-85 18 -34 19 16 42 29 50 30 8 0 30 -23 48 -50 18 -28 37 -48 43 -45 14 9 11
20 -20 85 l-28 61 33 54 c35 59 32 80 -7 39 -46 -49 -54 -49 -99 9 l-42 52 4
-35z"/>
<path d="M5647 3338 c7 -43 26 -62 51 -54 51 17 27 86 -29 86 -27 0 -28 -2
-22 -32z"/>
<path d="M6330 3355 c-7 -8 -15 -36 -18 -61 -5 -48 5 -64 41 -64 22 0 67 47
67 70 0 21 -44 70 -63 70 -8 0 -20 -7 -27 -15z"/>
<path d="M4368 3342 c-10 -2 -18 -7 -18 -12 0 -28 256 -158 371 -188 122 -32
263 -47 310 -33 22 7 75 18 118 26 91 16 155 40 146 55 -3 6 -11 8 -16 5 -5
-4 -9 -4 -9 -1 0 3 29 19 65 36 87 41 85 55 -7 46 -155 -15 -286 -21 -353 -15
-38 3 -83 2 -98 -2 -25 -7 -170 16 -217 35 -8 3 -55 12 -105 20 -49 8 -108 19
-130 23 -22 5 -48 7 -57 5z"/>
<path d="M5570 3295 c0 -8 -7 -15 -16 -15 -9 0 -14 -6 -11 -12 5 -14 46 -13
61 2 6 6 4 15 -4 25 -16 19 -30 19 -30 0z"/>
<path d="M1555 3269 c-92 -12 -98 -15 -90 -40 4 -11 8 -65 10 -120 5 -127 10
-130 55 -29 l20 45 -7 -90 c-5 -49 -8 -142 -7 -205 1 -126 13 -172 76 -280 37
-64 48 -50 23 32 -22 73 -32 237 -16 248 7 4 17 44 22 91 5 46 16 129 25 185
8 55 13 114 10 130 -2 16 -5 32 -5 37 -1 8 -21 8 -116 -4z"/>
<path d="M5690 3205 c-23 -31 -40 -59 -37 -61 3 -3 23 0 46 6 46 12 74 46 69
82 -6 42 -34 32 -78 -27z"/>
<path d="M4340 3243 c0 -16 68 -53 96 -53 l29 1 -33 29 c-30 28 -92 43 -92 23z"/>
<path d="M3865 3221 c-16 -4 -55 -19 -85 -34 -30 -14 -74 -30 -97 -37 -23 -6
-46 -18 -51 -26 -5 -9 -27 -18 -50 -21 -59 -8 -52 -23 11 -23 101 0 367 89
367 124 0 25 -36 31 -95 17z"/>
<path d="M6194 3220 c-12 -5 -46 -8 -77 -8 -42 0 -72 -7 -128 -33 -41 -18 -76
-36 -79 -39 -10 -12 -95 -66 -130 -82 -47 -22 -167 -65 -205 -73 l-30 -7 39
36 c45 43 31 47 -55 17 -55 -20 -191 -56 -239 -65 -28 -5 -134 -29 -229 -53
-119 -30 -472 -19 -556 17 -11 5 -42 16 -69 25 -27 8 -58 22 -69 30 -29 20
-40 19 -32 -4 11 -36 -19 -44 -74 -20 -51 21 -60 32 -41 44 14 8 42 77 35 84
-3 3 -15 0 -25 -7 -28 -17 -30 -16 -17 18 6 16 8 32 5 36 -4 3 -31 -6 -62 -20
-86 -41 -109 -34 -71 22 13 19 22 39 19 43 -3 5 -26 8 -52 7 -48 0 -94 -21
-177 -78 -99 -68 -162 -104 -209 -122 -95 -36 -85 -54 19 -32 60 12 104 28
211 76 16 8 28 6 48 -7 14 -10 26 -21 26 -26 0 -14 -107 -124 -150 -154 -23
-16 -43 -39 -47 -54 -3 -14 -10 -32 -16 -39 -18 -23 -1 -22 34 2 54 37 180 99
203 100 12 1 41 8 66 15 31 9 45 10 48 2 2 -6 9 -11 15 -11 7 0 32 -16 56 -35
24 -19 47 -35 52 -35 4 0 10 -8 13 -18 8 -26 75 -57 189 -89 53 -15 95 -28 93
-30 -3 -3 -120 9 -211 22 l-40 6 35 -19 c65 -36 249 -65 420 -66 148 -1 289 6
382 20 38 5 298 86 418 129 24 9 68 31 97 48 51 31 66 51 41 59 -7 3 15 20 48
38 68 39 136 85 214 146 30 24 80 55 110 69 116 54 190 97 190 111 0 16 -6 16
-36 4z m-544 -374 c0 -2 -7 -7 -16 -10 -8 -3 -12 -2 -9 4 6 10 25 14 25 6z"/>
<path d="M13650 3214 c-83 -17 -129 -58 -115 -101 20 -55 88 -46 158 19 35 33
50 80 30 91 -5 2 -37 -2 -73 -9z"/>
<path d="M4320 3194 c0 -14 38 -39 47 -30 10 10 -5 33 -26 39 -14 3 -21 0 -21
-9z"/>
<path d="M11105 3088 c-4 -39 -11 -84 -15 -100 -12 -39 4 -35 29 8 22 37 25
64 15 127 -10 57 -21 44 -29 -35z"/>
<path d="M6637 3144 c-4 -4 -7 -37 -7 -74 0 -36 -7 -116 -14 -176 -22 -163
-30 -285 -22 -339 4 -26 10 -44 14 -41 3 4 14 45 24 91 10 47 27 124 38 172
11 49 20 120 21 158 1 91 -34 228 -54 209z"/>
<path d="M11310 3139 c0 -31 44 -90 87 -116 88 -53 113 -59 113 -27 0 24 -99
111 -150 132 -28 12 -50 16 -50 11z"/>
<path d="M6771 3040 c-6 -28 -11 -81 -11 -118 0 -37 -7 -114 -15 -172 -19
-136 -19 -207 0 -305 10 -49 16 -136 16 -224 0 -79 4 -140 8 -135 27 29 35 98
36 314 1 150 5 234 13 253 14 33 16 255 3 307 -5 19 -12 56 -16 83 -3 26 -10
47 -15 47 -4 0 -13 -23 -19 -50z"/>
<path d="M8202 3023 c16 -60 35 -89 92 -146 58 -59 152 -126 143 -104 -18 47
-217 287 -238 287 -4 0 -3 -17 3 -37z"/>
<path d="M6194 3030 c-68 -70 -248 -219 -398 -330 -91 -68 -116 -93 -103 -106
8 -9 76 16 111 40 17 12 58 41 91 66 33 25 69 52 81 60 162 112 254 211 254
270 0 25 -11 25 -36 0z"/>
<path d="M11798 3013 c25 -35 72 -76 79 -69 8 8 -68 96 -84 96 -11 0 -10 -6 5
-27z"/>
<path d="M11680 2991 c0 -16 63 -85 132 -144 43 -36 68 -52 68 -43 0 9 -14 28
-31 43 -18 16 -50 48 -73 72 -75 80 -96 96 -96 72z"/>
<path d="M6498 2974 c-9 -16 -37 -137 -58 -254 -34 -186 -43 -224 -52 -234 -4
-6 -8 6 -8 26 0 20 -5 49 -11 65 -8 22 -12 24 -19 13 -6 -8 -10 -31 -10 -50 0
-19 -7 -57 -15 -84 -8 -27 -15 -55 -15 -63 0 -22 37 6 55 42 l15 30 -1 -50
c-2 -75 0 -85 17 -92 16 -6 64 32 64 51 1 6 9 29 20 51 11 22 19 57 20 78 0
21 5 47 11 58 30 57 33 365 4 405 -6 9 -14 13 -17 8z"/>
<path d="M11396 2972 c-15 -25 58 -72 112 -72 17 0 14 21 -6 46 -18 22 -97 41
-106 26z"/>
<path d="M11620 2891 c0 -5 5 -13 10 -16 6 -3 10 -14 10 -23 0 -9 40 -56 90
-103 92 -87 134 -118 147 -106 11 12 -24 74 -54 94 -15 10 -57 48 -93 84 -61
63 -110 94 -110 70z"/>
<path d="M11185 2844 c12 -36 27 -57 61 -84 11 -9 29 -29 41 -45 31 -43 36
-27 9 30 -22 48 -96 135 -115 135 -5 0 -3 -16 4 -36z"/>
<path d="M13844 2859 c-88 -34 -133 -99 -74 -107 33 -5 95 17 119 42 21 23 32
77 16 82 -5 2 -33 -6 -61 -17z"/>
<path d="M3150 2766 c-47 -24 -98 -51 -115 -60 -16 -9 -45 -16 -63 -16 -48 0
-92 -26 -92 -54 0 -24 -18 -43 -62 -65 -28 -14 -45 -41 -27 -41 6 0 28 9 48
19 57 30 153 68 186 75 32 6 144 17 210 21 113 6 111 6 90 14 -11 5 -54 14
-95 21 -41 7 -78 14 -82 17 -14 7 33 60 73 82 21 12 39 24 39 27 0 11 -32 -1
-110 -40z"/>
<path d="M8258 2788 c26 -28 109 -74 118 -65 3 3 -20 22 -52 42 -75 48 -96 55
-66 23z"/>
<path d="M9080 2775 c0 -12 187 -81 197 -72 7 8 -42 32 -115 56 -61 21 -82 25
-82 16z"/>
<path d="M9496 2719 c-49 -5 -91 -11 -93 -13 -2 -2 16 -12 41 -21 43 -17 49
-17 111 0 36 10 73 24 83 31 15 12 13 13 -18 12 -19 0 -75 -5 -124 -9z"/>
<path d="M2770 2671 c0 -11 40 -22 52 -15 5 3 6 10 3 15 -8 12 -55 12 -55 0z"/>
<path d="M10930 2645 c-68 -37 -108 -70 -97 -81 8 -8 96 33 122 58 11 10 31
27 45 38 41 32 2 23 -70 -15z"/>
<path d="M8277 2633 c-8 -12 56 -107 85 -127 34 -24 67 -20 80 10 18 39 -6 74
-67 97 -68 26 -92 30 -98 20z"/>
<path d="M5600 2622 c-32 -14 -148 -107 -139 -111 28 -9 169 78 169 105 0 15
-6 16 -30 6z"/>
<path d="M11045 2590 c-9 -39 13 -142 28 -137 19 6 20 102 2 137 -8 16 -17 30
-19 30 -3 0 -7 -13 -11 -30z"/>
<path d="M3410 2452 c-41 -21 -94 -50 -118 -65 -24 -15 -55 -33 -70 -40 -38
-16 -160 -95 -168 -108 -13 -22 35 -2 301 127 126 62 202 125 148 124 -10 -1
-52 -18 -93 -38z"/>
<path d="M5515 2470 c-16 -12 -68 -42 -115 -68 -63 -35 -79 -48 -63 -50 12 -2
41 7 65 19 41 21 158 106 158 115 0 9 -16 3 -45 -16z"/>
<path d="M8992 2461 c34 -29 114 -69 102 -50 -8 14 -110 79 -124 79 -6 0 4
-13 22 -29z"/>
<path d="M10845 2481 c-18 -7 -16 -9 11 -15 17 -4 44 -4 60 0 l29 8 -25 7
c-33 9 -51 9 -75 0z"/>
<path d="M8493 2474 c-17 -7 7 -60 36 -81 33 -22 119 -54 125 -45 11 18 -26
71 -69 100 -46 31 -66 36 -92 26z"/>
<path d="M3693 2451 c-17 -10 -44 -26 -59 -35 -27 -18 -27 -18 -21 3 3 11 2
21 -2 21 -3 0 -33 -28 -66 -63 -34 -34 -94 -82 -135 -107 -40 -25 -90 -55
-109 -67 -20 -11 -99 -53 -176 -92 -157 -80 -258 -140 -234 -141 24 0 128 44
189 82 31 18 76 41 100 51 56 23 113 49 168 76 45 22 55 16 22 -14 -21 -19
-27 -50 -11 -59 5 -4 21 9 37 26 94 113 148 166 219 215 84 59 125 95 125 113
0 14 -9 12 -47 -9z"/>
<path d="M4316 2444 c-56 -17 -82 -20 -87 -13 -5 8 -16 8 -42 0 -34 -11 -260
-124 -357 -178 -51 -28 -180 -114 -180 -119 0 -6 154 66 164 77 6 5 19 9 29 9
10 0 51 15 90 34 40 18 101 42 137 51 71 19 122 29 103 19 -17 -8 -16 -34 1
-34 7 0 33 7 56 15 53 19 61 19 54 0 -5 -12 0 -14 27 -8 19 3 53 14 77 24 23
10 42 14 42 9 0 -28 110 9 142 47 12 14 9 15 -24 9 -34 -6 -38 -5 -38 14 0 26
-9 25 -72 -5 -28 -14 -54 -25 -57 -25 -3 0 11 16 30 36 l34 37 -28 -5 c-20 -4
-25 -2 -18 5 13 13 15 27 4 26 -5 -1 -44 -12 -87 -25z m49 -84 c-3 -5 -11 -10
-16 -10 -6 0 -7 5 -4 10 3 6 11 10 16 10 6 0 7 -4 4 -10z"/>
<path d="M3130 2423 c-26 -9 -81 -45 -77 -49 7 -8 97 35 97 46 0 5 -1 10 -2 9
-2 0 -10 -3 -18 -6z"/>
<path d="M5210 2404 c-57 -19 -109 -50 -119 -71 -15 -32 -15 -33 14 -33 44 0
165 74 165 102 0 9 -35 10 -60 2z"/>
<path d="M11108 2383 c-24 -6 -22 -20 5 -34 12 -7 43 -29 68 -50 52 -44 79
-50 79 -18 0 51 -56 110 -104 108 -17 -1 -39 -3 -48 -6z"/>
<path d="M4619 2350 c-19 -10 -41 -26 -48 -34 -32 -39 78 -7 113 33 19 21 19
21 -5 21 -13 -1 -40 -9 -60 -20z"/>
<path d="M4745 2347 c-39 -13 -58 -28 -47 -39 9 -9 92 20 92 33 0 14 -15 16
-45 6z"/>
<path d="M6220 2303 c-58 -81 -80 -114 -80 -118 0 -12 38 -3 64 15 30 19 64
86 65 128 1 33 -12 27 -49 -25z"/>
<path d="M8730 2278 c1 -22 33 -53 90 -85 69 -40 114 -46 118 -18 3 24 -78 81
-146 101 -56 17 -62 17 -62 2z"/>
<path d="M2206 2253 c-10 -26 -20 -257 -12 -288 9 -36 19 -24 40 51 18 67 22
205 6 235 -13 23 -26 24 -34 2z"/>
<path d="M4948 2252 c-57 -20 -131 -88 -106 -97 9 -4 34 -2 56 4 47 13 129 82
118 99 -9 15 -9 15 -68 -6z"/>
<path d="M11060 2227 c0 -6 7 -19 17 -29 9 -10 21 -28 27 -41 13 -24 114 -89
127 -81 19 12 6 36 -45 87 -52 51 -126 89 -126 64z"/>
<path d="M2388 2209 c-2 -8 -3 -32 -2 -54 2 -22 5 -104 7 -183 4 -115 2 -142
-8 -138 -8 3 -31 8 -52 12 -36 7 -37 6 -23 -11 8 -10 33 -36 56 -57 42 -39 52
-64 91 -243 39 -178 51 -220 64 -220 10 0 15 19 19 64 4 58 6 63 19 47 8 -10
15 -34 16 -54 1 -20 7 -72 15 -115 10 -63 20 -87 45 -117 35 -42 45 -42 45 2
0 49 24 31 47 -34 12 -35 24 -74 27 -88 3 -14 13 -34 23 -45 10 -11 18 -27 18
-35 0 -8 9 -15 20 -15 17 0 20 6 18 43 -1 30 2 42 10 39 7 -2 13 -12 15 -23 5
-30 72 -164 82 -164 5 0 12 5 15 10 10 17 22 3 29 -35 7 -34 28 -47 41 -24 4
6 8 41 10 79 1 37 5 73 9 78 8 13 -57 121 -88 147 -13 11 -31 36 -40 56 -29
61 -76 101 -76 64 0 -8 -4 -15 -8 -15 -9 0 -39 125 -52 217 -4 34 -13 70 -18
79 -8 14 -11 10 -17 -24 -3 -22 -13 -46 -21 -53 -8 -6 -14 -26 -14 -43 0 -45
-10 -76 -25 -76 -9 0 -15 24 -19 73 -4 39 -11 92 -16 117 -18 88 -28 155 -24
162 2 3 20 1 39 -5 19 -6 38 -7 41 -4 7 7 -36 77 -47 77 -19 0 -53 70 -60 124
-9 77 -42 172 -47 138 -3 -22 -4 -23 -18 -5 -12 16 -13 1 -9 -107 7 -176 15
-298 25 -348 4 -23 4 -44 0 -47 -9 -5 -38 145 -45 235 -3 36 -8 79 -10 95 -3
17 -7 46 -10 65 -5 41 -69 314 -83 349 -6 17 -10 20 -14 10z"/>
<path d="M10425 2127 c22 -18 71 -62 110 -98 38 -36 93 -82 120 -103 82 -60
135 -109 135 -123 0 -7 9 -13 20 -13 11 0 20 -4 20 -8 0 -4 15 -13 33 -20 32
-12 124 -94 171 -154 14 -18 28 -30 31 -26 16 16 -63 143 -139 226 -17 18 -30
35 -28 38 6 10 -60 83 -81 90 -11 3 -38 23 -59 44 -52 50 -186 123 -283 154
-44 14 -82 26 -85 25 -3 0 13 -14 35 -32z"/>
<path d="M10645 2144 c11 -8 56 -41 100 -73 84 -62 165 -133 165 -145 0 -13
72 -99 108 -131 19 -16 43 -28 52 -28 12 1 31 -17 52 -47 78 -116 58 -4 -23
125 -56 89 -194 195 -363 277 -82 39 -130 51 -91 22z"/>
<path d="M9005 2120 c-8 -13 7 -39 39 -69 34 -32 122 -43 132 -16 11 27 -6 45
-61 64 -76 27 -103 32 -110 21z"/>
<path d="M11777 2103 c-9 -17 -17 -76 -20 -148 -3 -66 -10 -133 -15 -150 -9
-29 -9 -28 -16 20 -9 60 -22 88 -30 65 -11 -30 -36 -301 -36 -384 0 -80 -1
-84 -20 -79 -17 5 -18 7 -7 17 11 9 12 24 5 76 -5 36 -12 101 -16 145 l-8 80
-8 -70 c-4 -38 -14 -97 -22 -130 -8 -33 -11 -71 -8 -85 7 -28 6 -157 -2 -182
-3 -9 -1 -19 5 -22 13 -8 3 -155 -19 -266 -21 -104 -27 -156 -35 -271 -2 -42
-7 -83 -11 -92 -3 -9 -3 -21 1 -28 7 -11 58 94 75 156 17 58 48 142 68 181 10
21 23 57 27 79 7 35 9 37 14 16 l7 -24 16 24 c17 28 34 100 43 199 4 36 13
108 21 160 19 124 32 724 16 734 -6 4 -17 -5 -25 -21z"/>
<path d="M10980 2107 c0 -7 20 -37 45 -66 25 -29 45 -59 45 -67 0 -8 12 -20
26 -26 14 -7 32 -27 39 -45 15 -36 35 -44 35 -14 0 11 6 21 12 23 15 5 -18 59
-73 121 -39 44 -129 96 -129 74z"/>
<path d="M4754 2100 c-43 -10 -106 -50 -101 -64 2 -6 21 -10 42 -9 41 3 105
44 105 69 0 15 -1 15 -46 4z"/>
<path d="M3210 1992 c-102 -104 -200 -215 -200 -226 0 -18 68 24 117 72 86 85
223 239 223 251 0 31 -46 -1 -140 -97z"/>
<path d="M10180 2088 c0 -7 129 -96 178 -124 78 -44 123 -36 70 13 -48 44
-248 133 -248 111z"/>
<path d="M5722 1940 c-39 -28 -90 -105 -78 -117 8 -9 146 117 146 133 0 22
-24 17 -68 -16z"/>
<path d="M9295 1960 c-11 -18 25 -69 69 -95 24 -14 61 -26 82 -28 35 -2 39 0
42 25 4 35 -38 74 -102 93 -58 17 -82 19 -91 5z"/>
<path d="M4505 1918 c-20 -30 0 -37 26 -10 23 25 24 32 5 32 -8 0 -22 -10 -31
-22z"/>
<path d="M6411 1904 c-12 -15 -21 -31 -21 -36 0 -4 -11 -26 -25 -48 -27 -42
-51 -54 -40 -20 3 11 2 20 -3 20 -14 0 -69 -64 -77 -89 -3 -12 -12 -21 -20
-21 -24 0 -44 -48 -51 -120 -6 -66 -5 -71 12 -70 41 5 54 0 54 -21 0 -32 15
-16 101 114 64 96 85 136 100 194 13 52 16 81 9 98 -12 31 -14 31 -39 -1z"/>
<path d="M9984 1884 c3 -9 9 -28 12 -42 3 -15 12 -44 20 -65 21 -56 18 -64
-31 -99 -25 -18 -45 -35 -45 -40 0 -4 29 3 65 17 l65 24 31 -45 c37 -51 46
-56 24 -14 -23 44 -18 66 18 91 37 27 80 69 74 75 -2 2 -29 -7 -61 -21 -31
-14 -63 -25 -70 -25 -7 0 -31 36 -52 80 -22 44 -43 80 -48 80 -4 0 -5 -7 -2
-16z"/>
<path d="M10510 1864 c0 -30 132 -136 144 -115 7 10 -50 68 -95 96 -40 26 -49
29 -49 19z"/>
<path d="M9608 1738 c6 -25 96 -120 105 -111 10 9 -12 45 -56 91 -46 47 -58
52 -49 20z"/>
<path d="M4293 1728 c-17 -13 -36 -30 -42 -40 -10 -16 -8 -16 17 -7 42 16 92
69 64 69 -4 0 -21 -10 -39 -22z"/>
<path d="M10718 1637 c47 -91 68 -114 107 -119 19 -2 35 0 35 5 0 16 -33 72
-59 100 -22 25 -89 67 -105 67 -3 0 7 -24 22 -53z"/>
<path d="M1925 1606 c-42 -18 -85 -72 -85 -104 1 -34 22 -62 47 -62 27 0 47
25 73 90 12 30 26 60 31 66 21 25 -18 31 -66 10z"/>
<path d="M5770 1565 c-7 -8 -17 -15 -22 -15 -15 0 -119 -67 -160 -103 -55 -48
-106 -117 -101 -136 2 -9 -5 -25 -16 -35 -26 -24 -27 -36 -2 -36 11 0 40 19
64 43 24 23 77 74 118 113 79 75 147 153 149 169 2 16 -16 17 -30 0z"/>
<path d="M10390 1505 c0 -15 4 -24 10 -20 6 3 10 12 10 20 0 8 -4 17 -10 20
-6 4 -10 -5 -10 -20z"/>
<path d="M6404 1468 c-89 -95 -95 -108 -101 -219 l-6 -99 24 0 c14 0 32 9 41
20 25 28 58 100 58 125 0 11 5 26 12 33 7 7 9 12 6 12 -5 0 2 35 31 148 13 47
-6 41 -65 -20z"/>
<path d="M11329 1411 c9 -39 24 -80 34 -91 9 -11 17 -25 17 -30 0 -6 5 -10 10
-10 6 0 10 -9 10 -20 0 -35 28 -22 32 15 2 19 1 35 -3 35 -4 0 -10 16 -14 36
-10 56 -35 101 -64 115 -14 7 -29 15 -32 17 -4 1 1 -29 10 -67z"/>
<path d="M13601 1463 c-31 -26 -32 -64 -2 -79 46 -23 81 17 62 70 -12 30 -30
33 -60 9z"/>
<path d="M13365 1461 c-44 -15 -75 -35 -80 -53 -4 -10 -10 -18 -14 -18 -17 0
-51 -80 -51 -119 0 -22 -4 -41 -10 -41 -5 0 -10 -4 -10 -10 0 -16 18 -12 40
10 11 11 28 20 38 20 23 0 96 76 110 115 15 41 19 97 7 100 -5 2 -19 0 -30 -4z"/>
<path d="M10386 1373 c-3 -48 -9 -163 -12 -255 l-7 -168 52 0 c47 0 51 2 51
24 0 14 -9 62 -20 107 -10 45 -25 145 -31 223 -7 77 -15 145 -19 149 -4 5 -10
-31 -14 -80z"/>
<path d="M11090 1305 c0 -22 29 -164 46 -224 11 -35 16 -93 15 -169 0 -85 5
-140 21 -206 18 -80 20 -108 14 -250 l-6 -161 22 37 c23 37 46 53 34 23 -12
-32 15 -12 52 38 73 98 75 106 79 282 2 88 8 182 14 208 11 59 12 157 0 175
-12 20 -21 -9 -21 -69 0 -63 -15 -64 -24 -1 -3 27 -17 80 -30 118 -22 64 -24
67 -31 41 -4 -15 -5 -43 -2 -60 3 -18 0 -40 -7 -50 -11 -14 -17 -8 -49 56 -20
39 -44 97 -53 127 -20 70 -74 132 -74 85z"/>
<path d="M5232 1207 c-41 -31 -58 -53 -81 -104 -12 -25 -27 -30 -34 -10 -6 16
-32 -15 -57 -73 -53 -118 -66 -139 -79 -137 -8 1 -24 -13 -35 -31 -82 -128
-112 -170 -121 -169 -5 1 -9 -4 -7 -12 1 -7 -6 -21 -17 -30 -23 -20 -61 -86
-61 -106 0 -8 9 -15 20 -15 11 0 20 -7 20 -15 0 -32 122 -118 140 -98 13 13
137 264 160 323 12 30 26 60 31 67 6 6 11 22 13 35 3 26 82 191 150 313 25 44
45 83 46 88 1 18 -49 4 -88 -26z m-268 -408 c-14 -28 -28 -49 -31 -46 -7 8 36
97 47 97 5 0 -3 -23 -16 -51z m-81 -134 c-3 -9 -8 -14 -10 -11 -3 3 -2 9 2 15
9 16 15 13 8 -4z m-43 -80 c-7 -9 -15 -13 -17 -11 -7 7 7 26 19 26 6 0 6 -6
-2 -15z"/>
<path d="M13094 1172 c-42 -38 -62 -114 -39 -148 9 -14 13 -29 9 -35 -3 -6 3
-13 15 -16 12 -3 21 -12 21 -19 0 -27 58 -16 90 17 16 18 30 36 30 40 0 5 7 9
15 9 16 0 18 6 15 63 -1 22 3 37 10 37 6 0 8 5 5 10 -4 6 -12 4 -21 -5 -21
-20 -21 -20 -17 18 3 24 2 28 -6 17 -5 -8 -11 -12 -13 -10 -2 3 -8 14 -14 25
-17 31 -65 29 -100 -3z"/>
<path d="M8586 1171 c5 -5 56 -48 114 -96 58 -48 124 -112 148 -144 23 -31 66
-81 96 -111 29 -30 78 -87 108 -126 79 -104 151 -184 165 -184 17 0 93 69 93
84 0 6 -20 34 -45 61 -25 28 -71 85 -103 128 -31 44 -76 104 -98 135 -51 70
-95 117 -155 165 -60 48 -78 48 -50 1 12 -19 21 -37 21 -40 0 -3 -19 6 -42 20
-24 13 -54 27 -68 31 -14 4 -34 15 -45 24 -35 30 -170 81 -139 52z"/>
<path d="M13271 1164 c0 -11 3 -14 6 -6 3 7 2 16 -1 19 -3 4 -6 -2 -5 -13z"/>
<path d="M8186 897 c-20 -40 -36 -76 -36 -80 0 -4 17 -7 39 -7 32 0 40 4 45
23 9 35 7 137 -3 137 -6 0 -26 -33 -45 -73z"/>
<path d="M10416 913 c-29 -5 -29 -5 -22 -61 15 -146 25 -200 40 -236 19 -45
21 -87 4 -104 -17 -17 -35 -15 -68 9 -78 58 -131 -38 -64 -116 13 -16 24 -31
24 -35 0 -4 14 -10 31 -14 22 -4 42 0 70 16 22 12 39 25 39 30 0 4 6 8 13 8
19 0 68 86 74 128 3 26 -2 47 -17 72 -42 72 -52 106 -57 200 -5 83 -14 113
-33 108 -3 0 -18 -3 -34 -5z"/>
<path d="M13955 870 c-4 -6 -13 -9 -20 -6 -14 5 -30 -38 -20 -54 4 -6 1 -10
-4 -10 -18 0 -50 -32 -45 -45 3 -6 -2 -18 -11 -25 -10 -8 -15 -30 -15 -66 0
-32 -4 -54 -11 -54 -7 0 -9 -18 -7 -47 3 -45 2 -48 -22 -48 -21 0 -26 -6 -33
-40 -12 -53 -9 -147 4 -156 8 -5 8 -9 0 -13 -17 -11 -13 -23 10 -29 16 -4 20
-11 16 -27 -5 -19 -2 -21 19 -16 20 5 24 3 24 -18 0 -19 -4 -23 -19 -19 -10 3
-22 0 -25 -6 -4 -6 0 -11 8 -11 23 0 26 -14 11 -43 -11 -22 -11 -28 1 -37 11
-10 11 -14 -1 -27 -27 -27 -15 -73 20 -73 12 0 30 9 40 20 17 19 17 21 1 39
-21 24 -11 55 14 41 9 -5 20 -6 24 -3 3 3 6 -3 6 -15 0 -19 6 -22 40 -22 l40
0 0 170 c0 94 -4 170 -9 170 -5 0 -14 -7 -21 -15 -9 -11 -16 -12 -31 -2 -25
15 -24 27 1 27 21 0 27 15 9 25 -5 4 -31 10 -57 13 -41 6 -47 10 -50 33 -2 20
2 28 18 32 12 3 24 15 27 26 3 12 12 21 19 21 17 0 17 5 2 29 -17 28 -3 51 32
51 16 0 30 -4 30 -10 0 -5 7 -10 15 -10 18 0 19 5 4 29 -9 13 -9 26 -1 50 9
26 9 37 -3 55 -8 12 -12 26 -8 30 9 9 4 78 -7 89 -4 5 -11 4 -15 -3z m5 -65
c0 -8 -7 -15 -15 -15 -9 0 -12 6 -9 15 4 8 10 15 15 15 5 0 9 -7 9 -15z m-105
-235 c3 -5 1 -10 -4 -10 -6 0 -11 5 -11 10 0 6 2 10 4 10 3 0 8 -4 11 -10z"/>
<path d="M11731 790 c-22 -52 -39 -120 -29 -120 8 0 60 150 56 162 -2 6 -14
-13 -27 -42z"/>
<path d="M3184 675 c-4 -8 -3 -26 0 -39 3 -14 2 -27 -3 -30 -5 -3 -5 -22 -1
-42 8 -36 4 -64 -9 -64 -3 0 -26 32 -51 71 -25 38 -53 80 -62 92 l-17 22 -1
-33 c0 -18 4 -40 9 -50 6 -9 23 -46 40 -82 54 -117 144 -240 176 -240 20 0 20
1 -17 70 -60 110 -66 125 -58 134 5 5 21 -5 37 -24 28 -34 136 -90 173 -90 13
0 20 7 20 20 0 11 -4 20 -10 20 -11 0 -137 151 -168 201 -12 20 -22 43 -22 52
0 21 -29 30 -36 12z"/>
<path d="M3324 614 c-16 -6 30 -94 64 -121 52 -43 71 -20 27 31 -14 16 -25 35
-25 43 0 7 -6 13 -14 13 -7 0 -20 9 -27 19 -8 10 -19 17 -25 15z"/>
<path d="M3410 598 c0 -17 55 -78 69 -78 17 0 13 35 -6 52 -32 28 -63 40 -63
26z"/>
<path d="M3510 597 c0 -17 26 -47 41 -47 12 0 -4 32 -25 50 -13 10 -16 10 -16
-3z"/>
<path d="M9285 500 c-38 -38 -39 -42 -25 -64 8 -12 24 -37 35 -55 11 -18 46
-71 77 -119 32 -48 58 -91 58 -95 0 -5 17 -34 38 -65 21 -32 42 -66 48 -77 10
-17 23 -20 98 -23 87 -3 94 -1 76 21 -15 18 -105 141 -115 158 -7 10 -2 9 18
-4 37 -24 34 -12 -13 53 -91 127 -120 169 -120 179 0 6 -3 11 -7 11 -5 0 -28
27 -53 60 -24 33 -52 60 -60 60 -9 0 -34 -18 -55 -40z"/>
<path d="M13579 493 c-1 -5 -1 -12 0 -16 1 -4 -6 -10 -14 -13 -18 -7 -20 -30
-3 -40 14 -9 38 23 38 53 0 21 -18 34 -21 16z"/>
<path d="M4665 451 c-17 -22 -44 -46 -62 -55 -17 -8 -34 -24 -38 -35 -3 -11
-15 -23 -25 -26 -11 -3 -29 -18 -40 -32 -11 -14 -20 -23 -20 -19 0 3 -9 -3
-20 -14 -11 -11 -24 -20 -30 -20 -5 0 -12 -11 -16 -24 -3 -14 -14 -32 -25 -42
-39 -35 -14 -47 28 -14 14 11 31 20 36 20 6 0 1 -8 -11 -17 -13 -10 -42 -36
-65 -58 -24 -22 -62 -57 -85 -78 l-42 -37 150 0 149 0 48 48 c26 26 68 63 93
82 48 36 157 155 177 194 12 22 10 27 -28 58 -23 18 -53 44 -67 57 -20 18 -29
21 -42 13 -13 -8 -16 -6 -16 11 1 34 -18 29 -49 -12z m-5 -76 c-12 -13 -27
-22 -33 -18 -6 4 2 16 18 30 34 30 46 21 15 -12z"/>
<path d="M10976 457 c-36 -132 -108 -321 -133 -349 -15 -17 -23 -72 -12 -83 3
-2 21 0 41 5 48 14 103 77 122 140 32 109 33 282 0 294 -8 3 -16 0 -18 -7z"/>
<path d="M13600 439 c0 -5 5 -7 10 -4 6 3 10 1 10 -4 0 -6 16 -11 36 -11 27 0
35 -3 31 -14 -4 -10 -1 -13 9 -9 22 8 17 40 -8 47 -37 9 -88 7 -88 -5z"/>
<path d="M13186 391 c-4 -6 -16 -11 -27 -11 -10 0 -19 -4 -19 -9 0 -5 -7 -17
-16 -26 -21 -20 -9 -33 16 -17 12 7 21 8 25 2 3 -6 2 -10 -4 -10 -5 0 -13 -9
-16 -21 -4 -13 -12 -18 -22 -15 -13 5 -15 0 -9 -36 4 -23 9 -44 11 -46 2 -2
20 1 39 8 29 9 36 17 36 37 0 24 2 25 41 19 l41 -7 -4 31 c-3 17 0 30 6 30 29
-1 55 -14 64 -33 8 -18 10 -11 9 33 -1 30 -6 58 -11 61 -5 4 -27 5 -50 2 -62
-8 -88 -6 -96 7 -5 9 -9 9 -14 1z m134 -52 c0 -5 -4 -9 -10 -9 -5 0 -10 7 -10
16 0 8 5 12 10 9 6 -3 10 -10 10 -16z"/>
<path d="M13070 349 c0 -5 5 -7 10 -4 6 3 10 8 10 11 0 2 -4 4 -10 4 -5 0 -10
-5 -10 -11z"/>
<path d="M3036 278 c4 -7 16 -23 26 -34 17 -19 17 -22 4 -27 -14 -5 -12 -12 8
-42 14 -19 37 -67 52 -105 l27 -70 113 0 114 0 -12 28 c-7 15 -17 33 -22 41
-9 12 -8 13 4 6 12 -6 13 -5 3 6 -7 7 -13 20 -13 29 0 8 -9 20 -19 25 -11 6
-50 31 -88 56 -113 77 -218 123 -197 87z"/>
<path d="M4265 268 c-4 -13 -7 -26 -6 -30 1 -5 -5 -8 -13 -8 -7 0 -21 -12 -31
-26 -18 -29 -23 -33 -120 -133 l-69 -71 50 0 c45 0 54 4 86 37 68 70 86 92 81
97 -3 3 1 8 10 12 10 3 18 23 22 52 3 26 8 57 11 70 2 12 0 22 -5 22 -5 0 -12
-10 -16 -22z"/>
<path d="M13580 192 c0 -44 3 -49 35 -66 39 -21 62 -13 30 10 -20 15 -20 15 0
27 19 11 18 12 -10 17 -24 4 -31 11 -33 33 -5 46 -22 30 -22 -21z"/>
<path d="M13672 165 c-11 -12 -10 -15 3 -15 8 0 15 7 15 15 0 18 -2 18 -18 0z"/>
<path d="M13704 135 c-3 -8 -3 -22 0 -30 4 -13 10 -14 26 -5 11 6 20 15 20 20
0 5 -9 14 -20 20 -16 9 -22 8 -26 -5z"/>
<path d="M11124 102 c-6 -4 -15 -17 -18 -30 -4 -12 -20 -34 -34 -48 l-27 -25
40 3 c38 3 41 6 54 46 13 43 7 68 -15 54z"/>
<path d="M13665 90 c-3 -5 1 -10 10 -10 9 0 13 5 10 10 -3 6 -8 10 -10 10 -2
0 -7 -4 -10 -10z"/>
<path d="M3414 58 c3 -13 6 -31 6 -40 0 -13 8 -18 32 -18 25 0 29 3 20 12 -7
7 -12 20 -12 30 0 9 -9 22 -19 28 -29 15 -34 13 -27 -12z"/>
<path d="M4267 73 c-12 -11 -8 -23 8 -23 8 0 15 7 15 15 0 16 -12 20 -23 8z"/>
<path d="M5097 39 l-38 -39 50 0 c43 0 53 4 67 25 41 62 -22 74 -79 14z"/>
<path d="M3943 43 c-7 -2 -13 -11 -13 -18 0 -7 -8 -16 -17 -19 -11 -3 -9 -4 6
-3 13 1 30 12 39 25 14 21 10 26 -15 15z"/>
<path d="M10790 10 l-25 -8 28 -1 c15 -1 27 4 27 9 0 6 -1 10 -2 9 -2 -1 -14
-5 -28 -9z"/>
<path d="M13255 10 c-22 -6 -8 -8 53 -9 45 0 82 2 82 7 0 10 -98 12 -135 2z"/>
</g>
</svg>
